<?xml version="1.0" encoding="utf-8"?>
<!-- Generator: Adobe Illustrator 16.0.0, SVG Export Plug-In . SVG Version: 6.00 Build 0)  -->
<!DOCTYPE svg PUBLIC "-//W3C//DTD SVG 1.1//EN" "http://www.w3.org/Graphics/SVG/1.1/DTD/svg11.dtd">
<svg version="1.1" id="Calque_1" xmlns="http://www.w3.org/2000/svg" xmlns:xlink="http://www.w3.org/1999/xlink" x="0px" y="0px"
	 width="719.963px" height="667.467px" viewBox="-62.891 -35.893 719.963 667.467"
	 enable-background="new -62.891 -35.893 719.963 667.467" xml:space="preserve">
<g id="edges">
	<path fill="none" stroke="#754D83" stroke-width="0.438" stroke-opacity="0.498" d="M274.988,23.277
		C412.78,92.558,515.547,403.168,446.266,540.96"/>
	<path fill="none" stroke="#754D83" stroke-width="0.8759" stroke-opacity="0.498" d="M274.988,23.277
		c139.965,56.002,265.909,349.952,209.907,489.917"/>
	<path fill="none" stroke="#03BF83" stroke-width="0.6569" stroke-opacity="0.498" d="M274.988,23.277
		C287.54,135.436,138.128,322.5,25.97,335.052"/>
	<path fill="none" stroke="#754D83" stroke-width="2.4088" stroke-opacity="0.498" d="M274.988,23.277
		C407.199,38.595,582.537,259.888,567.22,392.1"/>
	<path fill="none" d="M274.988,23.277c121.144-1.52,305.138,177.917,306.657,299.06"/>
	<path fill="none" d="M274.988,23.277c26.779,121.025-114.591,342.73-235.616,369.51"/>
	<path fill="none" stroke="#03BF83" stroke-width="0.6569" stroke-opacity="0.498" d="M274.988,23.277
		c37.578,125.306-94.013,369.633-219.319,407.211"/>
	<path fill="none" stroke="#0094FF" stroke-width="0.219" stroke-opacity="0.498" d="M274.988,23.277
		c-16.969,38.62-100.353,71.096-138.973,54.126"/>
	<path fill="none" d="M274.988,23.277c99.213-19.315,277.004,100.529,296.318,199.742"/>
	<path fill="none" stroke="#03BF83" stroke-width="1.5328" stroke-opacity="0.498" d="M274.988,23.277
		c50.689,128.22-65.605,396.584-193.825,447.273"/>
	<path fill="none" stroke="#754D83" stroke-width="0.6569" stroke-opacity="0.498" d="M274.988,23.277
		c88.755-24.1,258.037,72.883,282.137,161.638"/>
	<path fill="none" stroke="#03BF83" stroke-width="0.219" stroke-opacity="0.498" d="M274.988,23.277
		c84.77,125.327,23.932,440.472-101.396,525.24"/>
	<path fill="none" stroke="#754D83" stroke-width="0.219" stroke-opacity="0.498" d="M274.988,23.277
		c77.088-27.446,233.89,47.017,261.336,124.105"/>
	<path fill="none" d="M274.988,23.277c47.986-27.945,161.882,2.118,189.826,50.104"/>
	<path fill="none" stroke="#0094FF" stroke-width="4.1606" stroke-opacity="0.498" d="M274.988,23.277
		c-15.767,67.667-140.917,145.517-208.584,129.75"/>
	<path fill="none" stroke="#03BF83" stroke-width="0.438" stroke-opacity="0.498" d="M274.988,23.277
		c93.551,121.998,50.881,445.32-71.118,538.871"/>
	<path fill="none" stroke="#03BF83" stroke-width="0.219" stroke-opacity="0.498" d="M274.988,23.277
		c111.598,110.763,112.848,444.305,2.084,555.901"/>
	<path fill="none" stroke="#0094FF" stroke-width="0.8759" stroke-opacity="0.498" d="M274.988,23.277
		c-6.313,90.927-152.172,217.849-243.1,211.536"/>
	<path fill="none" stroke="#754D83" stroke-width="0.6569" stroke-opacity="0.498" d="M274.988,23.277
		c15.129-14.227,59.164-12.874,73.391,2.256"/>
	<path fill="none" stroke="#03BF83" stroke-width="0.438" stroke-opacity="0.498" d="M274.988,23.277
		c121.844,100.557,153.773,434.156,53.217,556"/>
	<path fill="none" stroke="#03BF83" stroke-width="1.7518" stroke-opacity="0.498" d="M274.988,23.277
		c129.995,88.763,191.842,416.9,103.078,546.896"/>
	<path fill="none" stroke="#787807" stroke-width="1.5328" stroke-opacity="0.498" d="M446.266,540.96
		c-44.241,52.717-189.678,65.431-242.395,21.188"/>
	<path fill="none" d="M446.266,540.96C315.588,464.048,234.939,152.663,311.852,21.985"/>
	<path fill="none" stroke="#EA0707" stroke-width="0.219" stroke-opacity="0.498" d="M484.896,513.194
		c-2.173,13.279-25.351,29.938-38.63,27.766"/>
	<path fill="none" d="M484.896,513.194c-46.414,65.996-215.029,95.368-281.025,48.954"/>
	<path fill="none" stroke="#03BF83" stroke-width="1.5328" stroke-opacity="0.498" d="M24.177,288.725
		C21.25,185.474,171.736,26.205,274.988,23.277"/>
	<path fill="none" stroke="#787807" stroke-width="3.2847" stroke-opacity="0.498" d="M24.177,288.725
		c134.865-33.971,388.118,117.371,422.089,252.235"/>
	<path fill="none" stroke="#787807" stroke-width="0.438" stroke-opacity="0.498" d="M24.177,288.725
		c137.038-47.25,413.47,87.431,460.719,224.469"/>
	<path fill="none" stroke="#03BF83" stroke-width="2.6277" stroke-opacity="0.498" d="M24.177,288.725
		C11.983,199.727,127.19,47.938,216.189,35.744"/>
	<path fill="none" stroke="#07EA07" stroke-width="0.6569" stroke-opacity="0.498" d="M24.177,288.725
		c9.624,8.907,10.7,36.703,1.793,46.327"/>
	<path fill="none" d="M24.177,288.725c133.495-77.451,449.914,6.614,527.366,140.109"/>
	<path fill="none" d="M24.177,288.725C153.46,200.792,479.285,262.815,567.22,392.1"/>
	<path fill="none" stroke="#787807" stroke-width="0.6569" stroke-opacity="0.498" d="M24.177,288.725
		c123.672-97.631,455.626-58.572,553.259,65.1"/>
	<path fill="none" d="M24.177,288.725c16.468,13.698,20.624,58.947,6.927,75.415"/>
	<path fill="none" stroke="#07EA07" stroke-width="1.5328" stroke-opacity="0.498" d="M24.177,288.725
		c23.852,17.773,32.969,80.21,15.195,104.062"/>
	<path fill="none" stroke="#07EA07" stroke-width="0.8759" stroke-opacity="0.498" d="M24.177,288.725
		c34.651,22.054,53.547,107.113,31.493,141.763"/>
	<path fill="none" d="M24.177,288.725C4.28,224.093,71.383,97.301,136.015,77.404"/>
	<path fill="none" d="M24.177,288.725c96.285-122.567,424.563-161.991,547.13-65.706"/>
	<path fill="none" stroke="#07EA07" stroke-width="0.438" stroke-opacity="0.498" d="M24.177,288.725
		c47.763,24.968,81.954,134.063,56.986,181.826"/>
	<path fill="none" stroke="#07EA07" stroke-width="2.4088" stroke-opacity="0.498" d="M24.177,288.725
		c62.31,25.568,117.421,157.385,91.853,219.695"/>
	<path fill="none" d="M24.177,288.725c85.828-127.352,405.597-189.637,532.948-103.81"/>
	<path fill="none" stroke="#07EA07" stroke-width="0.438" stroke-opacity="0.498" d="M24.177,288.725
		c81.842,22.076,171.492,177.951,149.416,259.792"/>
	<path fill="none" d="M24.177,288.725C98.338,158.027,405.626,73.222,536.324,147.382"/>
	<path fill="none" stroke="#03BF83" stroke-width="2.4088" stroke-opacity="0.498" d="M24.177,288.725
		c-20.696-51.807,25.97-160.562,77.777-181.258"/>
	<path fill="none" stroke="#787807" stroke-width="0.438" stroke-opacity="0.498" d="M24.177,288.725
		C69.236,157.529,333.618,28.322,464.814,73.381"/>
	<path fill="none" stroke="#07EA07" stroke-width="0.8759" stroke-opacity="0.498" d="M24.177,288.725
		c90.624,18.746,198.44,182.8,179.694,273.423"/>
	<path fill="none" stroke="#07EA07" stroke-width="0.438" stroke-opacity="0.498" d="M24.177,288.725
		C123.609,302.83,251.6,473.136,237.495,572.567"/>
	<path fill="none" stroke="#03BF83" stroke-width="2.1898" stroke-opacity="0.498" d="M24.177,288.725
		c-15.577-25.309-0.98-86.639,24.329-102.216"/>
	<path fill="none" stroke="#07EA07" stroke-width="1.9708" stroke-opacity="0.498" d="M24.177,288.725
		c108.67,7.512,260.407,181.784,252.896,290.454"/>
	<path fill="none" stroke="#03BF83" stroke-width="0.6569" stroke-opacity="0.498" d="M24.177,288.725
		c-9.24-12.325-4.613-44.672,7.712-53.912"/>
	<path fill="none" stroke="#787807" stroke-width="0.438" stroke-opacity="0.498" d="M24.177,288.725
		C36.379,171.247,230.9,13.331,348.379,25.533"/>
	<path fill="none" stroke="#07EA07" stroke-width="4.8175" stroke-opacity="0.498" d="M24.177,288.725
		c118.917-2.695,301.333,171.636,304.028,290.552"/>
	<path fill="none" stroke="#07EA07" stroke-width="2.1898" stroke-opacity="0.498" d="M24.177,288.725
		c127.068-14.488,339.401,154.38,353.89,281.448"/>
	<path fill="none" stroke="#07EA07" stroke-width="0.6569" stroke-opacity="0.498" d="M24.177,288.725
		c131.318-23.234,363.146,138.89,386.38,270.208"/>
	<path fill="none" d="M24.177,288.725c4.187-110.882,176.792-270.926,287.675-266.74"/>
	<path fill="none" stroke="#0094FF" stroke-width="7.8832" stroke-opacity="0.498" d="M216.189,35.744
		c9.267-14.253,44.546-21.733,58.799-12.466"/>
	<path fill="none" stroke="#754D83" stroke-width="0.219" stroke-opacity="0.498" d="M216.189,35.744
		C363.248,90.771,501.293,393.901,446.266,540.96"/>
	<path fill="none" stroke="#754D83" stroke-width="1.3139" stroke-opacity="0.498" d="M216.189,35.744
		c149.231,41.749,310.455,328.219,268.706,477.451"/>
	<path fill="none" stroke="#754D83" stroke-width="1.9708" stroke-opacity="0.498" d="M216.189,35.744
		C357.666,36.809,568.285,250.622,567.22,392.1"/>
	<path fill="none" stroke="#0094FF" stroke-width="1.7518" stroke-opacity="0.498" d="M216.189,35.744
		c-5.044,12.514-31.382,23.72-43.896,18.676"/>
	<path fill="none" d="M216.189,35.744c36.045,106.772-70.045,320.999-176.817,357.043"/>
	<path fill="none" stroke="#03BF83" stroke-width="1.7518" stroke-opacity="0.498" d="M216.189,35.744
		c46.845,111.053-49.467,347.901-160.52,394.745"/>
	<path fill="none" stroke="#0094FF" stroke-width="0.6569" stroke-opacity="0.498" d="M216.189,35.744
		c-7.703,24.367-55.808,49.363-80.174,41.66"/>
	<path fill="none" d="M216.189,35.744c108.479-33.569,321.549,78.797,355.117,187.275"/>
	<path fill="none" stroke="#03BF83" stroke-width="2.4088" stroke-opacity="0.498" d="M216.189,35.744
		c59.956,113.966-21.06,374.851-135.026,434.807"/>
	<path fill="none" stroke="#0094FF" stroke-width="0.438" stroke-opacity="0.498" d="M216.189,35.744
		c-8.246,29.143-64.33,60.488-93.473,52.242"/>
	<path fill="none" stroke="#754D83" stroke-width="2.4088" stroke-opacity="0.498" d="M216.189,35.744
		c98.021-38.353,302.583,51.15,340.936,149.172"/>
	<path fill="none" stroke="#03BF83" stroke-width="0.219" stroke-opacity="0.498" d="M216.189,35.744
		c94.035,111.074,68.478,418.739-42.597,512.774"/>
	<path fill="none" d="M216.189,35.744c86.354-41.699,278.436,25.284,320.135,111.639"/>
	<path fill="none" stroke="#754D83" stroke-width="1.5328" stroke-opacity="0.498" d="M216.189,35.744
		c57.252-42.198,206.428-19.615,248.625,37.637"/>
	<path fill="none" stroke="#0094FF" stroke-width="3.5036" stroke-opacity="0.498" d="M216.189,35.744
		c-7.727,46.821-89.549,105.461-136.37,97.734"/>
	<path fill="none" stroke="#0094FF" stroke-width="23.2117" stroke-opacity="0.498" d="M216.189,35.744
		c-6.5,53.414-96.372,123.784-149.786,117.284"/>
	<path fill="none" stroke="#03BF83" stroke-width="0.219" stroke-opacity="0.498" d="M216.189,35.744
		c102.817,107.745,95.426,423.588-12.319,526.405"/>
	<path fill="none" stroke="#0094FF" stroke-width="23.8686" stroke-opacity="0.498" d="M216.189,35.744
		c-3.384,63.69-103.994,154.149-167.684,150.765"/>
	<path fill="none" stroke="#03BF83" stroke-width="0.438" stroke-opacity="0.498" d="M216.189,35.744
		c120.863,96.51,157.393,422.571,60.883,543.435"/>
	<path fill="none" stroke="#754D83" stroke-width="1.3139" stroke-opacity="0.498" d="M216.189,35.744
		C258.352-2.32,378.691,3.827,416.756,45.99"/>
	<path fill="none" stroke="#0094FF" stroke-width="5.6934" stroke-opacity="0.498" d="M216.189,35.744
		c2.954,76.674-107.627,196.116-184.301,199.069"/>
	<path fill="none" stroke="#754D83" stroke-width="0.219" stroke-opacity="0.498" d="M216.189,35.744
		c24.396-28.48,103.71-34.606,132.189-10.21"/>
	<path fill="none" stroke="#03BF83" stroke-width="1.7518" stroke-opacity="0.498" d="M216.189,35.744
		c131.11,86.303,198.32,412.424,112.016,543.534"/>
	<path fill="none" stroke="#03BF83" stroke-width="1.3139" stroke-opacity="0.498" d="M216.189,35.744
		c139.262,74.51,236.388,395.168,161.877,534.429"/>
	<path fill="none" stroke="#03BF83" stroke-width="0.438" stroke-opacity="0.498" d="M216.189,35.744
		c143.512,65.764,260.132,379.677,194.367,523.189"/>
	<path fill="none" stroke="#754D83" stroke-width="0.219" stroke-opacity="0.498" d="M216.189,35.744
		c16.381-21.884,73.777-30.139,95.662-13.758"/>
	<path fill="none" d="M509.292,489.57C369.172,443.172,228.59,163.396,274.988,23.277"/>
	<path fill="none" d="M509.292,489.57c-2.327,22.883-40.144,53.717-63.026,51.39"/>
	<path fill="none" stroke="#EA0707" stroke-width="0.219" stroke-opacity="0.498" d="M509.292,489.57
		c-0.154,9.604-14.792,23.778-24.396,23.624"/>
	<path fill="none" stroke="#754D83" stroke-width="0.6569" stroke-opacity="0.498" d="M509.292,489.57
		C359.906,457.426,184.045,185.129,216.189,35.744"/>
	<path fill="none" d="M509.292,489.57C354.861,469.939,152.663,208.85,172.293,54.42"/>
	<path fill="none" d="M509.292,489.57c-120.724,70.552-407.637-4.707-478.188-125.431"/>
	<path fill="none" stroke="#787807" stroke-width="1.3139" stroke-opacity="0.498" d="M509.292,489.57
		c-102.541,78.908-374.714,43.459-453.623-59.082"/>
	<path fill="none" d="M509.292,489.57c-40.907-65.713-3.698-225.644,62.015-266.551"/>
	<path fill="none" stroke="#787807" stroke-width="0.438" stroke-opacity="0.498" d="M509.292,489.57
		c-74.882,82.422-310.84,93.732-393.262,18.85"/>
	<path fill="none" stroke="#EA0707" stroke-width="0.8759" stroke-opacity="0.498" d="M509.292,489.57
		c-51.364-70.498-22.665-253.291,47.833-304.655"/>
	<path fill="none" stroke="#754D83" stroke-width="0.219" stroke-opacity="0.498" d="M509.292,489.57
		C351.404,494.617,107,265.355,101.954,107.467"/>
	<path fill="none" stroke="#EA0707" stroke-width="1.0949" stroke-opacity="0.498" d="M509.292,489.57
		c-92.134-74.342-118.819-324.056-44.478-416.189"/>
	<path fill="none" d="M509.292,489.57c-37.761,70.959-200.839,120.758-271.797,82.997"/>
	<path fill="none" d="M509.292,489.57C356.522,521.115,80.05,339.278,48.505,186.509"/>
	<path fill="none" stroke="#EA0707" stroke-width="1.9708" stroke-opacity="0.498" d="M509.292,489.57
		C402.068,419.361,346.547,153.213,416.756,45.99"/>
	<path fill="none" stroke="#754D83" stroke-width="0.8759" stroke-opacity="0.498" d="M509.292,489.57
		C362.859,534.1,76.418,381.245,31.889,234.813"/>
	<path fill="none" stroke="#787807" stroke-width="0.219" stroke-opacity="0.498" d="M509.292,489.57
		c-18.276,54.158-126.928,107.982-181.087,89.707"/>
	<path fill="none" d="M509.292,489.57c-133.005-54.029-251.47-334.58-197.44-467.585"/>
	<path fill="none" stroke="#787807" stroke-width="0.219" stroke-opacity="0.498" d="M25.97,335.052
		c125.241-42.877,377.419,80.667,420.296,205.908"/>
	<path fill="none" stroke="#787807" stroke-width="0.219" stroke-opacity="0.498" d="M25.97,335.052
		c127.414-56.157,402.769,50.729,458.926,178.143"/>
	<path fill="none" stroke="#07EA07" stroke-width="11.3869" stroke-opacity="0.498" d="M25.97,335.052
		c14.228,8.866,22.269,43.508,13.402,57.735"/>
	<path fill="none" stroke="#07EA07" stroke-width="0.8759" stroke-opacity="0.498" d="M25.97,335.052
		c25.027,13.147,42.847,70.41,29.7,95.437"/>
	<path fill="none" stroke="#07EA07" stroke-width="1.3139" stroke-opacity="0.498" d="M25.97,335.052
		c38.139,16.062,71.254,97.36,55.193,135.499"/>
	<path fill="none" stroke="#07EA07" stroke-width="3.9416" stroke-opacity="0.498" d="M25.97,335.052
		C98.188,348.221,186.762,476.3,173.593,548.518"/>
	<path fill="none" stroke="#787807" stroke-width="0.438" stroke-opacity="0.498" d="M25.97,335.052
		C90.507,195.447,396.719,82.846,536.324,147.382"/>
	<path fill="none" stroke="#07EA07" stroke-width="2.1898" stroke-opacity="0.498" d="M25.97,335.052
		c81,9.839,187.74,146.098,177.901,227.097"/>
	<path fill="none" stroke="#07EA07" stroke-width="2.6277" stroke-opacity="0.498" d="M25.97,335.052
		c99.046-1.396,249.707,145.081,251.103,244.127"/>
	<path fill="none" stroke="#03BF83" stroke-width="0.219" stroke-opacity="0.498" d="M25.97,335.052
		c-18.864-21.231-15.313-81.375,5.919-100.239"/>
	<path fill="none" d="M25.97,335.052c109.292-11.603,290.634,134.934,302.235,244.226"/>
	<path fill="none" stroke="#07EA07" stroke-width="5.4745" stroke-opacity="0.498" d="M25.97,335.052
		c117.444-23.396,328.702,117.678,352.097,235.121"/>
	<path fill="none" stroke="#754D83" stroke-width="0.6569" stroke-opacity="0.498" d="M530.678,463.108
		C391.573,426.279,238.16,162.381,274.988,23.277"/>
	<path fill="none" stroke="#EA0707" stroke-width="2.8467" stroke-opacity="0.498" d="M530.678,463.108
		c-1.313,32.452-51.959,79.163-84.412,77.852"/>
	<path fill="none" stroke="#787807" stroke-width="0.438" stroke-opacity="0.498" d="M530.678,463.108
		C394.5,529.531,90.601,424.902,24.177,288.725"/>
	<path fill="none" stroke="#754D83" stroke-width="2.8467" stroke-opacity="0.498" d="M530.678,463.108
		C382.307,440.533,193.614,184.114,216.189,35.744"/>
	<path fill="none" stroke="#EA0707" stroke-width="1.9708" stroke-opacity="0.498" d="M530.678,463.108
		c1.015,9.569-11.816,25.446-21.386,26.462"/>
	<path fill="none" stroke="#EA0707" stroke-width="21.8978" stroke-opacity="0.498" d="M530.678,463.108
		c-2.683-11.028,9.836-31.593,20.865-34.274"/>
	<path fill="none" stroke="#EA0707" stroke-width="3.9416" stroke-opacity="0.498" d="M530.678,463.108
		c-6.895-21.511,15.031-64.116,36.542-71.009"/>
	<path fill="none" stroke="#EA0707" stroke-width="0.438" stroke-opacity="0.498" d="M530.678,463.108
		c-12.506-31.208,15.549-96.778,46.758-109.283"/>
	<path fill="none" stroke="#EA0707" stroke-width="2.4088" stroke-opacity="0.498" d="M530.678,463.108
		c-17.961-38.349,12.619-122.811,50.968-140.771"/>
	<path fill="none" stroke="#EA0707" stroke-width="0.6569" stroke-opacity="0.498" d="M530.678,463.108
		c-28.566-48.591,1.469-164.325,50.059-192.891"/>
	<path fill="none" d="M530.678,463.108c-154.902-4.493-380.516-243.588-376.022-398.49"/>
	<path fill="none" d="M530.678,463.108c-101.525,88.478-386.531,68.906-475.008-32.62"/>
	<path fill="none" stroke="#EA0707" stroke-width="4.3796" stroke-opacity="0.498" d="M530.678,463.108
		c-32.986-51.878-4.648-179.175,47.229-212.161"/>
	<path fill="none" stroke="#EA0707" stroke-width="0.8759" stroke-opacity="0.498" d="M530.678,463.108
		c-39.893-56.144-15.514-200.197,40.629-240.089"/>
	<path fill="none" stroke="#787807" stroke-width="2.1898" stroke-opacity="0.498" d="M530.678,463.108
		c-88.415,91.392-358.123,95.856-449.515,7.442"/>
	<path fill="none" d="M530.678,463.108c-156.617,6.567-401.394-218.506-407.961-375.123"/>
	<path fill="none" stroke="#787807" stroke-width="0.219" stroke-opacity="0.498" d="M530.678,463.108
		C456.811,555.1,208.021,582.287,116.03,508.42"/>
	<path fill="none" stroke="#EA0707" stroke-width="10.5109" stroke-opacity="0.498" d="M530.678,463.108
		c-50.35-60.929-34.48-227.844,26.447-278.193"/>
	<path fill="none" stroke="#EA0707" stroke-width="3.2847" stroke-opacity="0.498" d="M530.678,463.108
		c-62.017-64.274-58.629-253.71,5.646-315.726"/>
	<path fill="none" stroke="#EA0707" stroke-width="0.219" stroke-opacity="0.498" d="M530.678,463.108
		c-70.15-65.507-77.117-268.992-11.61-339.143"/>
	<path fill="none" d="M530.678,463.108C373.805,477.725,116.57,264.34,101.954,107.467"/>
	<path fill="none" stroke="#EA0707" stroke-width="3.0657" stroke-opacity="0.498" d="M530.678,463.108
		c-91.119-64.772-130.637-298.609-65.863-389.728"/>
	<path fill="none" d="M530.678,463.108c-36.745,80.528-212.654,146.204-293.183,109.459"/>
	<path fill="none" stroke="#754D83" stroke-width="0.6569" stroke-opacity="0.498" d="M530.678,463.108
		C378.923,504.223,89.62,338.264,48.505,186.509"/>
	<path fill="none" stroke="#EA0707" stroke-width="25.8394" stroke-opacity="0.498" d="M530.678,463.108
		C424.469,402.469,356.116,152.198,416.756,45.99"/>
	<path fill="none" stroke="#EA0707" stroke-width="0.6569" stroke-opacity="0.498" d="M530.678,463.108
		C415.493,406.576,327.516,149,384.048,33.816"/>
	<path fill="none" stroke="#754D83" stroke-width="0.6569" stroke-opacity="0.498" d="M530.678,463.108
		C385.26,517.207,85.987,380.23,31.889,234.813"/>
	<path fill="none" stroke="#EA0707" stroke-width="5.6934" stroke-opacity="0.498" d="M530.678,463.108
		C406.703,412.053,297.324,149.508,348.379,25.533"/>
	<path fill="none" stroke="#787807" stroke-width="0.438" stroke-opacity="0.498" d="M530.678,463.108
		c-17.261,63.728-138.744,133.43-202.473,116.169"/>
	<path fill="none" d="M530.678,463.108c-131.99-44.46-263.286-309.133-218.826-441.123"/>
	<path fill="none" stroke="#754D83" stroke-width="1.7518" stroke-opacity="0.498" d="M551.543,428.834
		C415.12,403.033,249.188,159.699,274.988,23.277"/>
	<path fill="none" stroke="#EA0707" stroke-width="7.4453" stroke-opacity="0.498" d="M551.543,428.834
		c1.369,43.48-61.797,110.756-105.277,112.126"/>
	<path fill="none" stroke="#EA0707" stroke-width="0.219" stroke-opacity="0.498" d="M551.543,428.834
		c3.542,30.201-36.445,80.817-66.647,84.36"/>
	<path fill="none" stroke="#754D83" stroke-width="0.6569" stroke-opacity="0.498" d="M551.543,428.834
		c-145.689-11.548-346.901-247.402-335.354-393.09"/>
	<path fill="none" d="M551.543,428.834c3.697,20.598-21.654,57.039-42.251,60.736"/>
	<path fill="none" d="M551.543,428.834c-123.871,86.357-439.215,30.089-525.573-93.782"/>
	<path fill="none" stroke="#EA0707" stroke-width="5.2555" stroke-opacity="0.498" d="M551.543,428.834
		c-4.212-10.482,5.194-32.523,15.677-36.734"/>
	<path fill="none" d="M551.543,428.834c-9.824-20.181,5.712-65.186,25.893-75.009"/>
	<path fill="none" stroke="#EA0707" stroke-width="2.1898" stroke-opacity="0.498" d="M551.543,428.834
		c-15.279-27.32,2.783-91.219,30.103-106.497"/>
	<path fill="none" d="M551.543,428.834c-25.885-37.563-8.369-132.732,29.193-158.617"/>
	<path fill="none" stroke="#787807" stroke-width="0.438" stroke-opacity="0.498" d="M551.543,428.834
		c-117.027,91.148-429.291,52.332-520.439-64.694"/>
	<path fill="none" stroke="#787807" stroke-width="0.8759" stroke-opacity="0.498" d="M551.543,428.834
		c-98.844,99.506-396.368,100.498-495.874,1.654"/>
	<path fill="none" stroke="#754D83" stroke-width="0.219" stroke-opacity="0.498" d="M551.543,428.834
		C398.15,441.653,148.834,230.795,136.015,77.404"/>
	<path fill="none" stroke="#EA0707" stroke-width="4.1606" stroke-opacity="0.498" d="M551.543,428.834
		c-30.305-40.851-14.486-147.583,26.364-177.887"/>
	<path fill="none" d="M551.543,428.834c-37.211-45.116-25.352-168.605,19.764-205.815"/>
	<path fill="none" stroke="#787807" stroke-width="0.8759" stroke-opacity="0.498" d="M551.543,428.834
		c-85.732,102.419-367.96,127.449-470.38,41.717"/>
	<path fill="none" stroke="#787807" stroke-width="1.0949" stroke-opacity="0.498" d="M551.543,428.834
		C480.357,531.854,219.05,579.605,116.03,508.42"/>
	<path fill="none" stroke="#EA0707" stroke-width="4.8175" stroke-opacity="0.498" d="M551.543,428.834
		c-47.668-49.9-44.318-196.251,5.582-243.918"/>
	<path fill="none" stroke="#EA0707" stroke-width="1.0949" stroke-opacity="0.498" d="M551.543,428.834
		c-59.334-53.247-68.466-222.118-15.219-281.452"/>
	<path fill="none" stroke="#EA0707" stroke-width="2.4088" stroke-opacity="0.498" d="M551.543,428.834
		c-88.437-53.745-140.474-267.017-86.729-355.453"/>
	<path fill="none" d="M551.543,428.834c-42.872,96.197-251.475,176.187-347.672,133.314"/>
	<path fill="none" stroke="#787807" stroke-width="0.219" stroke-opacity="0.498" d="M551.543,428.834
		c-34.063,91.557-222.492,177.797-314.048,143.733"/>
	<path fill="none" stroke="#754D83" stroke-width="0.219" stroke-opacity="0.498" d="M551.543,428.834
		C402.47,480.977,100.648,335.581,48.505,186.509"/>
	<path fill="none" d="M551.543,428.834c-94.259-52.529-156.852-272.711-104.322-366.969"/>
	<path fill="none" stroke="#EA0707" stroke-width="24.0876" stroke-opacity="0.498" d="M551.543,428.834
		C448.016,379.223,367.145,149.516,416.756,45.99"/>
	<path fill="none" stroke="#EA0707" stroke-width="0.438" stroke-opacity="0.498" d="M551.543,428.834
		c-112.503-45.505-213-282.516-167.495-395.018"/>
	<path fill="none" stroke="#754D83" stroke-width="1.3139" stroke-opacity="0.498" d="M551.543,428.834
		C408.808,493.961,97.015,377.548,31.889,234.813"/>
	<path fill="none" stroke="#EA0707" stroke-width="4.3796" stroke-opacity="0.498" d="M551.543,428.834
		C430.25,388.807,308.352,146.826,348.379,25.533"/>
	<path fill="none" stroke="#787807" stroke-width="0.6569" stroke-opacity="0.498" d="M551.543,428.834
		c-14.579,74.756-148.581,165.021-223.338,150.443"/>
	<path fill="none" stroke="#EA0707" stroke-width="1.5328" stroke-opacity="0.498" d="M551.543,428.834
		C422.234,395.402,278.419,151.293,311.852,21.985"/>
	<path fill="none" stroke="#EA0707" stroke-width="5.0365" stroke-opacity="0.498" d="M567.22,392.1
		c5.581,53.963-66.991,143.279-120.954,148.86"/>
	<path fill="none" stroke="#EA0707" stroke-width="0.438" stroke-opacity="0.498" d="M567.22,392.1
		c7.754,40.684-41.64,113.34-82.324,121.095"/>
	<path fill="none" stroke="#EA0707" stroke-width="1.3139" stroke-opacity="0.498" d="M567.22,392.1
		c-21.673-27.08-13.563-100.209,13.517-121.882"/>
	<path fill="none" stroke="#787807" stroke-width="0.219" stroke-opacity="0.498" d="M567.22,392.1
		c-38.66,106.68-256.669,208.709-363.349,170.049"/>
	<path fill="none" stroke="#754D83" stroke-width="0.219" stroke-opacity="0.498" d="M577.436,353.825
		c-126.6-5.62-308.067-203.949-302.447-330.548"/>
	<path fill="none" stroke="#EA0707" stroke-width="0.219" stroke-opacity="0.498" d="M577.436,353.825
		c11.192,63.661-67.51,175.941-131.17,187.135"/>
	<path fill="none" stroke="#EA0707" stroke-width="2.4088" stroke-opacity="0.498" d="M577.436,353.825
		c13.365,50.382-42.158,146.003-92.54,159.369"/>
	<path fill="none" stroke="#754D83" stroke-width="0.8759" stroke-opacity="0.498" d="M577.436,353.825
		c-135.866,8.633-352.613-182.216-361.246-318.082"/>
	<path fill="none" stroke="#EA0707" stroke-width="14.4526" stroke-opacity="0.498" d="M577.436,353.825
		c13.52,40.777-27.365,122.225-68.144,135.745"/>
	<path fill="none" d="M577.436,353.825C463.387,460.363,132.508,449.1,25.97,335.052"/>
	<path fill="none" stroke="#EA0707" stroke-width="0.219" stroke-opacity="0.498" d="M577.436,353.825
		c5.611,9.698-0.518,32.662-10.216,38.274"/>
	<path fill="none" stroke="#EA0707" stroke-width="0.219" stroke-opacity="0.498" d="M577.436,353.825
		c-5.456-7.14-2.93-26.032,4.21-31.488"/>
	<path fill="none" d="M577.436,353.825C470.231,465.154,142.433,471.343,31.104,364.14"/>
	<path fill="none" stroke="#787807" stroke-width="0.219" stroke-opacity="0.498" d="M577.436,353.825
		c-89.021,119.686-402.08,165.685-521.766,76.663"/>
	<path fill="none" d="M577.436,353.825c-143.568,32.999-408.421-132.853-441.42-276.421"/>
	<path fill="none" stroke="#EA0707" stroke-width="0.219" stroke-opacity="0.498" d="M577.436,353.825
		c-27.387-24.937-31.064-103.419-6.129-130.806"/>
	<path fill="none" d="M577.436,353.825C501.525,476.424,203.763,546.46,81.163,470.551"/>
	<path fill="none" stroke="#787807" stroke-width="0.219" stroke-opacity="0.498" d="M577.436,353.825
		C516.072,477.025,239.23,569.781,116.03,508.42"/>
	<path fill="none" stroke="#EA0707" stroke-width="1.0949" stroke-opacity="0.498" d="M577.436,353.825
		c-37.844-29.72-50.03-131.065-20.311-168.91"/>
	<path fill="none" stroke="#754D83" stroke-width="0.219" stroke-opacity="0.498" d="M577.436,353.825
		c-144.369,45.824-429.657-101.991-475.482-246.358"/>
	<path fill="none" stroke="#EA0707" stroke-width="0.6569" stroke-opacity="0.498" d="M577.436,353.825
		C498.822,320.26,431.25,151.994,464.814,73.381"/>
	<path fill="none" stroke="#754D83" stroke-width="0.219" stroke-opacity="0.498" d="M577.436,353.825
		c-139.25,72.322-456.607-28.067-528.93-167.316"/>
	<path fill="none" stroke="#EA0707" stroke-width="1.9708" stroke-opacity="0.498" d="M577.436,353.825
		c-93.703-29.432-190.111-214.133-160.68-307.835"/>
	<path fill="none" stroke="#754D83" stroke-width="1.3139" stroke-opacity="0.498" d="M577.436,353.825
		c-132.912,85.307-460.24,13.899-545.547-119.012"/>
	<path fill="none" stroke="#EA0707" stroke-width="0.8759" stroke-opacity="0.498" d="M577.436,353.825
		C465.965,333.978,328.532,137.003,348.379,25.533"/>
	<path fill="none" stroke="#787807" stroke-width="0.219" stroke-opacity="0.498" d="M577.436,353.825
		c-4.756,94.937-154.293,230.208-249.23,225.452"/>
	<path fill="none" stroke="#EA0707" stroke-width="0.438" stroke-opacity="0.498" d="M577.436,353.825
		C457.95,340.574,298.6,141.47,311.852,21.985"/>
	<path fill="none" stroke="#EA0707" stroke-width="0.438" stroke-opacity="0.498" d="M581.646,322.337
		c16.648,70.801-64.579,201.975-135.38,218.623"/>
	<path fill="none" d="M581.646,322.337c18.821,57.521-39.229,172.036-96.75,190.857"/>
	<path fill="none" d="M581.646,322.337c11.067,16.838,2.411,58.694-14.426,69.763"/>
	<path fill="none" d="M581.646,322.337C511.191,452.076,210.902,541.004,81.163,470.551"/>
	<path fill="none" stroke="#EA0707" stroke-width="0.6569" stroke-opacity="0.498" d="M581.646,322.337
		c-44.056-25.926-71.249-130.899-45.321-174.955"/>
	<path fill="none" d="M581.646,322.337c-136.911,69.187-446.055-32.399-515.242-169.31"/>
	<path fill="none" stroke="#754D83" stroke-width="0.6569" stroke-opacity="0.498" d="M581.646,322.337
		c-127.456,92.446-457.311,39.933-549.757-87.524"/>
	<path fill="none" stroke="#EA0707" stroke-width="1.3139" stroke-opacity="0.498" d="M581.646,322.337
		C475.631,309.63,335.672,131.547,348.379,25.533"/>
	<path fill="none" d="M581.646,322.337c0.7,102.076-151.364,256.24-253.44,256.94"/>
	<path fill="none" stroke="#754D83" stroke-width="0.8759" stroke-opacity="0.498" d="M582.319,292.519
		c-115.314,7.618-299.713-153.927-307.331-269.242"/>
	<path fill="none" d="M582.319,292.519c22.478,76.899-59.155,225.963-136.054,248.441"/>
	<path fill="none" stroke="#EA0707" stroke-width="0.219" stroke-opacity="0.498" d="M582.319,292.519
		c24.65,63.62-33.804,196.025-97.424,220.675"/>
	<path fill="none" stroke="#754D83" stroke-width="1.3139" stroke-opacity="0.498" d="M582.319,292.519
		c-124.581,21.872-344.259-132.194-366.13-256.775"/>
	<path fill="none" stroke="#EA0707" stroke-width="0.438" stroke-opacity="0.498" d="M582.319,292.519
		c24.805,54.016-19.012,172.247-73.027,197.051"/>
	<path fill="none" stroke="#EA0707" stroke-width="0.6569" stroke-opacity="0.498" d="M582.319,292.519
		c23.79,44.446-7.196,146.799-51.642,170.589"/>
	<path fill="none" d="M582.319,292.519c21.107,33.418,2.642,115.208-30.776,136.315"/>
	<path fill="none" stroke="#EA0707" stroke-width="1.7518" stroke-opacity="0.498" d="M582.319,292.519
		c16.896,22.936,7.836,82.684-15.1,99.581"/>
	<path fill="none" stroke="#EA0707" stroke-width="1.5328" stroke-opacity="0.498" d="M582.319,292.519
		c11.284,13.239,8.354,50.022-4.884,61.306"/>
	<path fill="none" d="M582.319,292.519c5.829,6.099,5.425,23.989-0.674,29.818"/>
	<path fill="none" d="M582.319,292.519C486.4,417.086,155.67,460.059,31.104,364.14"/>
	<path fill="none" stroke="#754D83" stroke-width="0.219" stroke-opacity="0.498" d="M582.319,292.519
		c-132.284,46.238-400.066-82.831-446.304-215.115"/>
	<path fill="none" stroke="#EA0707" stroke-width="0.438" stroke-opacity="0.498" d="M582.319,292.519
		c-9.196-7.432-11.845-32.375-4.412-41.572"/>
	<path fill="none" stroke="#787807" stroke-width="0.438" stroke-opacity="0.498" d="M582.319,292.519
		C517.694,428.356,217.001,535.176,81.163,470.551"/>
	<path fill="none" d="M582.319,292.519C532.242,428.957,252.468,558.498,116.03,508.42"/>
	<path fill="none" stroke="#EA0707" stroke-width="5.2555" stroke-opacity="0.498" d="M582.319,292.519
		c-26.56-16.482-41.676-81.044-25.194-107.604"/>
	<path fill="none" stroke="#754D83" stroke-width="0.6569" stroke-opacity="0.498" d="M582.319,292.519
		c-133.083,59.063-421.303-51.969-480.366-185.052"/>
	<path fill="none" stroke="#EA0707" stroke-width="0.219" stroke-opacity="0.498" d="M582.319,292.519
		c-56.706-21.398-109.669-138.555-88.271-195.261"/>
	<path fill="none" d="M582.319,292.519c-67.329-20.327-137.831-151.81-117.505-219.138"/>
	<path fill="none" d="M582.319,292.519c-131.081,75.285-440.631-8.41-515.916-139.492"/>
	<path fill="none" stroke="#754D83" stroke-width="0.438" stroke-opacity="0.498" d="M582.319,292.519
		c-127.965,85.561-448.253,21.955-533.814-106.01"/>
	<path fill="none" stroke="#EA0707" stroke-width="0.219" stroke-opacity="0.498" d="M582.319,292.519
		C499.9,276.326,400.563,128.408,416.756,45.99"/>
	<path fill="none" stroke="#754D83" stroke-width="1.0949" stroke-opacity="0.498" d="M582.319,292.519
		c-121.628,98.545-451.886,63.921-550.431-57.706"/>
	<path fill="none" d="M582.319,292.519c-100.185-6.609-240.55-166.8-233.94-266.986"/>
	<path fill="none" d="M582.319,292.519c6.528,108.174-145.939,280.229-254.114,286.758"/>
	<path fill="none" stroke="#754D83" stroke-width="0.219" stroke-opacity="0.498" d="M172.293,54.42
		c120.428-41.817,363.797,76.099,405.614,196.527"/>
	<path fill="none" d="M172.293,54.42c113.523-46.083,352.932,55.076,399.014,168.599"/>
	<path fill="none" stroke="#03BF83" stroke-width="0.438" stroke-opacity="0.498" d="M172.293,54.42
		c65,101.452,10.322,351.131-91.13,416.131"/>
	<path fill="none" stroke="#0094FF" stroke-width="0.438" stroke-opacity="0.498" d="M172.293,54.42
		c-3.202,16.628-32.948,36.768-49.576,33.565"/>
	<path fill="none" d="M172.293,54.42C275.358,3.552,506.258,81.85,557.125,184.916"/>
	<path fill="none" stroke="#0094FF" stroke-width="0.6569" stroke-opacity="0.498" d="M172.293,54.42
		c-2.683,34.306-58.167,81.741-92.474,79.058"/>
	<path fill="none" d="M172.293,54.42c29.44-40.995,135.092-58.327,176.086-28.887"/>
	<path fill="none" d="M172.293,54.42c136.154,73.789,229.701,388.703,155.912,524.857"/>
	<path fill="none" stroke="#787807" stroke-width="8.3212" stroke-opacity="0.498" d="M31.104,364.14
		c118.396-47.669,367.494,58.424,415.162,176.82"/>
	<path fill="none" stroke="#787807" stroke-width="0.6569" stroke-opacity="0.498" d="M31.104,364.14
		c120.569-60.948,392.845,28.485,453.792,149.055"/>
	<path fill="none" stroke="#07EA07" stroke-width="5.9124" stroke-opacity="0.498" d="M31.104,364.14
		c18.183,8.356,32.922,48.166,24.566,66.349"/>
	<path fill="none" stroke="#03BF83" stroke-width="0.219" stroke-opacity="0.498" d="M31.104,364.14
		C-5.262,285.81,57.686,113.769,136.015,77.404"/>
	<path fill="none" d="M31.104,364.14c31.294,11.271,61.33,75.116,50.06,106.411"/>
	<path fill="none" d="M31.104,364.14c69.359-141.049,384.973-248.583,526.021-179.224"/>
	<path fill="none" d="M31.104,364.14c92.201-6.187,239.783,122.837,245.969,215.039"/>
	<path fill="none" d="M31.104,364.14C5.395,338.117,5.866,260.521,31.889,234.813"/>
	<path fill="none" stroke="#787807" stroke-width="0.219" stroke-opacity="0.498" d="M31.104,364.14
		C26.837,232.963,217.203,29.799,348.379,25.533"/>
	<path fill="none" d="M31.104,364.14c102.448-16.394,280.709,112.69,297.102,215.138"/>
	<path fill="none" d="M31.104,364.14c110.599-28.187,318.777,95.434,346.963,206.033"/>
	<path fill="none" d="M31.104,364.14C18.822,239.559,187.271,34.267,311.852,21.985"/>
	<path fill="none" stroke="#0094FF" stroke-width="0.219" stroke-opacity="0.498" d="M154.655,64.618
		c15.798-32.335,87.998-57.14,120.333-41.341"/>
	<path fill="none" stroke="#0094FF" stroke-width="0.6569" stroke-opacity="0.498" d="M154.655,64.618
		c6.532-18.082,43.453-35.406,61.534-28.875"/>
	<path fill="none" d="M154.655,64.618c2.645-9.05,20.188-18.656,29.237-16.011"/>
	<path fill="none" stroke="#754D83" stroke-width="0.438" stroke-opacity="0.498" d="M154.655,64.618
		C302.664,47.602,550.203,244.09,567.22,392.1"/>
	<path fill="none" d="M154.655,64.618c1.488-5.567,12.07-11.687,17.638-10.198"/>
	<path fill="none" d="M154.655,64.618c42.577,88.69-26.593,285.592-115.283,328.169"/>
	<path fill="none" d="M154.655,64.618c66.488,95.885,22.393,339.444-73.492,405.933"/>
	<path fill="none" d="M154.655,64.618c-1.714,11.061-20.877,25.082-31.938,23.367"/>
	<path fill="none" d="M154.655,64.618c81.035,96.485,57.86,362.767-38.625,443.802"/>
	<path fill="none" stroke="#0094FF" stroke-width="1.0949" stroke-opacity="0.498" d="M154.655,64.618
		c-1.971,19.11-33.591,44.819-52.702,42.849"/>
	<path fill="none" stroke="#0094FF" stroke-width="1.0949" stroke-opacity="0.498" d="M154.655,64.618
		c-1.195,28.739-46.097,70.055-74.836,68.859"/>
	<path fill="none" stroke="#0094FF" stroke-width="0.219" stroke-opacity="0.498" d="M154.655,64.618
		c0.031,35.332-52.919,88.377-88.251,88.409"/>
	<path fill="none" stroke="#0094FF" stroke-width="1.0949" stroke-opacity="0.498" d="M154.655,64.618
		c3.148,45.608-60.542,118.742-106.15,121.891"/>
	<path fill="none" stroke="#787807" stroke-width="0.6569" stroke-opacity="0.498" d="M39.372,392.787
		c111.013-51.744,355.149,37.16,406.894,148.173"/>
	<path fill="none" d="M39.372,392.787c113.186-65.023,380.501,7.221,445.523,120.407"/>
	<path fill="none" stroke="#07EA07" stroke-width="0.6569" stroke-opacity="0.498" d="M39.372,392.787
		c10.8,4.281,20.578,26.902,16.297,37.701"/>
	<path fill="none" stroke="#07EA07" stroke-width="1.5328" stroke-opacity="0.498" d="M39.372,392.787
		c23.911,7.195,48.986,53.853,41.791,77.764"/>
	<path fill="none" d="M39.372,392.787C101.349,247.662,412,122.939,557.125,184.916"/>
	<path fill="none" stroke="#07EA07" stroke-width="2.6277" stroke-opacity="0.498" d="M39.372,392.787
		c57.99,4.303,138.523,97.74,134.221,155.73"/>
	<path fill="none" stroke="#07EA07" stroke-width="1.5328" stroke-opacity="0.498" d="M39.372,392.787
		c66.772,0.973,165.471,102.59,164.499,169.361"/>
	<path fill="none" stroke="#07EA07" stroke-width="3.7226" stroke-opacity="0.498" d="M39.372,392.787
		c84.818-10.262,227.438,101.573,237.7,186.392"/>
	<path fill="none" stroke="#03BF83" stroke-width="0.219" stroke-opacity="0.498" d="M39.372,392.787
		C6.281,362.689,1.791,267.905,31.889,234.813"/>
	<path fill="none" stroke="#07EA07" stroke-width="2.8467" stroke-opacity="0.498" d="M39.372,392.787
		c95.065-20.469,268.364,91.426,288.833,186.49"/>
	<path fill="none" stroke="#07EA07" stroke-width="5.9124" stroke-opacity="0.498" d="M39.372,392.787
		c103.216-32.262,306.433,74.17,338.694,177.386"/>
	<path fill="none" stroke="#787807" stroke-width="2.4088" stroke-opacity="0.498" d="M55.669,430.488
		c100.213-56.024,334.571,10.258,390.596,110.472"/>
	<path fill="none" stroke="#787807" stroke-width="0.438" stroke-opacity="0.498" d="M55.669,430.488
		c102.386-69.304,359.922-19.68,429.226,82.706"/>
	<path fill="none" stroke="#787807" stroke-width="0.438" stroke-opacity="0.498" d="M55.669,430.488
		c94.632-109.987,401.562-133.021,511.55-38.389"/>
	<path fill="none" stroke="#07EA07" stroke-width="0.8759" stroke-opacity="0.498" d="M55.669,430.488
		c47.19,0.021,117.945,70.839,117.923,118.029"/>
	<path fill="none" d="M55.669,430.488C2.324,372.85,8.765,206.373,66.404,153.027"/>
	<path fill="none" stroke="#07EA07" stroke-width="12.4818" stroke-opacity="0.498" d="M55.669,430.488
		c55.972-3.308,144.893,75.688,148.201,131.66"/>
	<path fill="none" stroke="#03BF83" stroke-width="1.0949" stroke-opacity="0.498" d="M55.669,430.488
		C11.778,396.109-2.49,278.705,31.889,234.813"/>
	<path fill="none" stroke="#787807" stroke-width="0.219" stroke-opacity="0.498" d="M55.669,430.488
		C25.205,297.552,178.914,52.45,311.852,21.985"/>
	<path fill="none" stroke="#754D83" stroke-width="0.438" stroke-opacity="0.498" d="M136.015,77.404
		c154.761,30.661,340.912,308.795,310.25,463.556"/>
	<path fill="none" d="M136.015,77.404c156.934,17.382,366.262,278.856,348.88,435.791"/>
	<path fill="none" stroke="#754D83" stroke-width="1.7518" stroke-opacity="0.498" d="M136.015,77.404
		c138.113-40.139,405.491,106.821,445.63,244.933"/>
	<path fill="none" d="M136.015,77.404c94.057-66.066,334.243-24.079,400.309,69.979"/>
	<path fill="none" d="M136.015,77.404c1.202,29.047-40.564,74.421-69.611,75.624"/>
	<path fill="none" stroke="#03BF83" stroke-width="0.219" stroke-opacity="0.498" d="M136.015,77.404
		c138.813,61.937,254.127,363.061,192.19,501.874"/>
	<path fill="none" stroke="#EA0707" stroke-width="0.6569" stroke-opacity="0.498" d="M577.907,250.947
		c31.675,84.331-47.312,258.338-131.642,290.013"/>
	<path fill="none" stroke="#EA0707" stroke-width="1.0949" stroke-opacity="0.498" d="M577.907,250.947
		c33.847,71.052-21.96,228.4-93.012,262.247"/>
	<path fill="none" stroke="#EA0707" stroke-width="0.219" stroke-opacity="0.498" d="M577.907,250.947
		C604,281.315,597.588,366.006,567.22,392.1"/>
	<path fill="none" d="M577.907,250.947c15.025,13.53,17.269,56.364,3.738,71.39"/>
	<path fill="none" d="M577.907,250.947C509.368,391.303,196.025,499.028,55.669,430.488"/>
	<path fill="none" stroke="#EA0707" stroke-width="3.7226" stroke-opacity="0.498" d="M577.907,250.947
		c-29.03-12.396-53.979-74.535-41.583-103.565"/>
	<path fill="none" stroke="#754D83" stroke-width="0.219" stroke-opacity="0.498" d="M577.907,250.947
		c-112.431,105.977-440.042,96.297-546.019-16.134"/>
	<path fill="none" stroke="#EA0707" stroke-width="7.2263" stroke-opacity="0.498" d="M577.907,250.947
		c-90.988,0.823-228.705-134.426-229.528-225.414"/>
	<path fill="none" d="M571.307,223.019c32.999,34.633,30.547,136.082-4.087,169.081"/>
	<path fill="none" stroke="#EA0707" stroke-width="1.7518" stroke-opacity="0.498" d="M571.307,223.019
		c6.906,4.266,10.866,21.022,6.601,27.928"/>
	<path fill="none" d="M571.307,223.019C522.785,370.555,228.698,519.073,81.163,470.551"/>
	<path fill="none" stroke="#EA0707" stroke-width="1.7518" stroke-opacity="0.498" d="M571.307,223.019
		c-10.457-4.784-18.966-27.646-14.182-38.104"/>
	<path fill="none" stroke="#EA0707" stroke-width="0.8759" stroke-opacity="0.498" d="M571.307,223.019
		c-22.123-8.13-43.113-53.513-34.982-75.637"/>
	<path fill="none" d="M571.307,223.019c-116.205,80.389-411.098,26.665-491.487-89.542"/>
	<path fill="none" stroke="#787807" stroke-width="0.219" stroke-opacity="0.498" d="M571.307,223.019
		c-5.66,141.313-226.123,344.792-367.436,339.129"/>
	<path fill="none" stroke="#754D83" stroke-width="0.438" stroke-opacity="0.498" d="M571.307,223.019
		C465.782,333.262,142.131,340.338,31.889,234.813"/>
	<path fill="none" d="M571.307,223.019c-84.082,5.088-217.839-113.403-222.928-197.486"/>
	<path fill="none" stroke="#787807" stroke-width="0.219" stroke-opacity="0.498" d="M571.307,223.019
		c22.632,119.872-123.229,333.627-243.102,356.258"/>
	<path fill="none" stroke="#787807" stroke-width="0.438" stroke-opacity="0.498" d="M81.163,470.551
		c87.103-58.938,306.164-16.693,365.103,70.409"/>
	<path fill="none" stroke="#787807" stroke-width="0.438" stroke-opacity="0.498" d="M81.163,470.551
		C162.684,357.648,454.318,310.578,567.22,392.1"/>
	<path fill="none" stroke="#07EA07" stroke-width="5.2555" stroke-opacity="0.498" d="M81.163,470.551
		c-13.111-2.914-28.407-26.951-25.494-40.063"/>
	<path fill="none" stroke="#07EA07" stroke-width="0.219" stroke-opacity="0.498" d="M81.163,470.551
		c34.08-2.893,89.538,43.888,92.43,77.967"/>
	<path fill="none" stroke="#03BF83" stroke-width="0.219" stroke-opacity="0.498" d="M81.163,470.551
		C14.707,409.998,5.851,219.484,66.404,153.027"/>
	<path fill="none" stroke="#07EA07" stroke-width="0.6569" stroke-opacity="0.498" d="M81.163,470.551
		c42.861-6.222,116.486,48.737,122.708,91.598"/>
	<path fill="none" stroke="#787807" stroke-width="0.6569" stroke-opacity="0.498" d="M81.163,470.551
		C45.603,328.104,205.933,61.094,348.379,25.533"/>
	<path fill="none" d="M81.163,470.551C37.588,334.7,176,65.561,311.852,21.985"/>
	<path fill="none" stroke="#0094FF" stroke-width="0.6569" stroke-opacity="0.498" d="M122.717,87.985
		c0.519,17.678-25.22,44.974-42.897,45.492"/>
	<path fill="none" stroke="#03BF83" stroke-width="1.3139" stroke-opacity="0.498" d="M116.03,508.42
		C50.793,379.6,146.168,88.514,274.988,23.277"/>
	<path fill="none" stroke="#787807" stroke-width="0.6569" stroke-opacity="0.498" d="M116.03,508.42
		c72.555-59.539,270.697-40.016,330.236,32.54"/>
	<path fill="none" stroke="#787807" stroke-width="0.438" stroke-opacity="0.498" d="M116.03,508.42
		c74.728-72.818,296.048-69.953,368.866,4.774"/>
	<path fill="none" stroke="#03BF83" stroke-width="2.1898" stroke-opacity="0.498" d="M116.03,508.42
		c-74.503-114.567-14.407-398.173,100.16-472.676"/>
	<path fill="none" stroke="#07EA07" stroke-width="0.219" stroke-opacity="0.498" d="M116.03,508.42
		C63.344,491.758,9.308,387.737,25.97,335.052"/>
	<path fill="none" stroke="#787807" stroke-width="0.6569" stroke-opacity="0.498" d="M116.03,508.42
		c66.974-113.502,337.687-183.295,451.19-116.32"/>
	<path fill="none" d="M116.03,508.42c-45.841-11.871-96.797-98.439-84.926-144.28"/>
	<path fill="none" stroke="#07EA07" stroke-width="1.9708" stroke-opacity="0.498" d="M116.03,508.42
		c-38.458-7.795-84.453-77.175-76.658-115.633"/>
	<path fill="none" stroke="#07EA07" stroke-width="1.7518" stroke-opacity="0.498" d="M116.03,508.42
		c-27.658-3.514-63.875-50.272-60.36-77.932"/>
	<path fill="none" stroke="#03BF83" stroke-width="0.219" stroke-opacity="0.498" d="M116.03,508.42
		c-82.206-90.2-70.215-348.81,19.985-431.016"/>
	<path fill="none" stroke="#07EA07" stroke-width="1.5328" stroke-opacity="0.498" d="M116.03,508.42
		c-14.547-0.601-35.467-23.322-34.867-37.869"/>
	<path fill="none" stroke="#787807" stroke-width="1.7518" stroke-opacity="0.498" d="M116.03,508.42
		c23.518-152.92,288.175-347.022,441.095-323.504"/>
	<path fill="none" stroke="#07EA07" stroke-width="2.4088" stroke-opacity="0.498" d="M116.03,508.42
		c19.532-3.493,54.07,20.566,57.563,40.098"/>
	<path fill="none" stroke="#787807" stroke-width="0.6569" stroke-opacity="0.498" d="M116.03,508.42
		c11.852-156.267,264.028-372.889,420.294-361.038"/>
	<path fill="none" stroke="#787807" stroke-width="0.219" stroke-opacity="0.498" d="M116.03,508.42
		C98.779,351.655,308.05,90.632,464.814,73.381"/>
	<path fill="none" d="M116.03,508.42C35.026,447.267,5.25,234.031,66.404,153.027"/>
	<path fill="none" d="M116.03,508.42c28.314-6.822,81.019,25.415,87.841,53.729"/>
	<path fill="none" stroke="#03BF83" stroke-width="3.7226" stroke-opacity="0.498" d="M116.03,508.42
		C38.143,457.543-2.372,264.396,48.505,186.509"/>
	<path fill="none" stroke="#07EA07" stroke-width="3.0657" stroke-opacity="0.498" d="M116.03,508.42
		c46.36-18.057,142.986,24.398,161.042,70.759"/>
	<path fill="none" stroke="#787807" stroke-width="1.0949" stroke-opacity="0.498" d="M116.03,508.42
		C83.689,355.789,264.124,78.331,416.756,45.99"/>
	<path fill="none" stroke="#03BF83" stroke-width="2.8467" stroke-opacity="0.498" d="M116.03,508.42
		C44.48,470.527-6.004,306.363,31.889,234.813"/>
	<path fill="none" stroke="#787807" stroke-width="0.219" stroke-opacity="0.498" d="M116.03,508.42
		C65.922,365.373,205.332,75.641,348.379,25.533"/>
	<path fill="none" stroke="#07EA07" stroke-width="0.438" stroke-opacity="0.498" d="M116.03,508.42
		c56.607-28.264,183.912,14.251,212.175,70.857"/>
	<path fill="none" stroke="#07EA07" stroke-width="3.0657" stroke-opacity="0.498" d="M116.03,508.42
		c64.758-40.057,221.98-3.005,262.037,61.753"/>
	<path fill="none" stroke="#07EA07" stroke-width="0.219" stroke-opacity="0.498" d="M116.03,508.42
		c69.008-48.803,245.724-18.496,294.527,50.513"/>
	<path fill="none" stroke="#EA0707" stroke-width="1.7518" stroke-opacity="0.498" d="M557.125,184.916
		c49.037,93.381-17.479,307.007-110.859,356.044"/>
	<path fill="none" stroke="#EA0707" stroke-width="1.3139" stroke-opacity="0.498" d="M557.125,184.916
		c51.21,80.102,7.873,277.069-72.229,328.279"/>
	<path fill="none" stroke="#EA0707" stroke-width="3.0657" stroke-opacity="0.498" d="M557.125,184.916
		c43.455,39.418,49.512,163.728,10.095,207.184"/>
	<path fill="none" stroke="#EA0707" stroke-width="1.0949" stroke-opacity="0.498" d="M557.125,184.916
		c32.389,22.581,47.101,105.033,24.521,137.421"/>
	<path fill="none" stroke="#787807" stroke-width="0.6569" stroke-opacity="0.498" d="M557.125,184.916
		c-51.176,149.406-352.05,296.75-501.456,245.573"/>
	<path fill="none" d="M557.125,184.916c-105.725,62.72-358.39-1.787-421.11-107.512"/>
	<path fill="none" stroke="#EA0707" stroke-width="3.5036" stroke-opacity="0.498" d="M557.125,184.916
		c17.363,9.05,29.832,48.669,20.782,66.032"/>
	<path fill="none" stroke="#787807" stroke-width="1.3139" stroke-opacity="0.498" d="M557.125,184.916
		C519.06,337.234,233.482,508.616,81.163,470.551"/>
	<path fill="none" stroke="#EA0707" stroke-width="2.6277" stroke-opacity="0.498" d="M557.125,184.916
		c-11.666-3.346-24.147-25.866-20.801-37.533"/>
	<path fill="none" stroke="#EA0707" stroke-width="0.6569" stroke-opacity="0.498" d="M557.125,184.916
		c-40.77-3.845-96.155-70.766-92.311-111.535"/>
	<path fill="none" stroke="#754D83" stroke-width="0.219" stroke-opacity="0.498" d="M557.125,184.916
		c-105.748,85.174-392.132,54.311-477.306-51.438"/>
	<path fill="none" d="M557.125,184.916c-104.521,91.767-398.955,72.634-490.721-31.888"/>
	<path fill="none" stroke="#787807" stroke-width="0.438" stroke-opacity="0.498" d="M557.125,184.916
		c22.842,134.864-145.189,371.421-280.053,394.263"/>
	<path fill="none" stroke="#754D83" stroke-width="3.2847" stroke-opacity="0.498" d="M557.125,184.916
		c-95.067,115.027-410.209,144.965-525.236,49.897"/>
	<path fill="none" stroke="#EA0707" stroke-width="7.6642" stroke-opacity="0.498" d="M557.125,184.916
		C483.5,194.788,358.252,99.159,348.379,25.533"/>
	<path fill="none" stroke="#787807" stroke-width="0.219" stroke-opacity="0.498" d="M557.125,184.916
		c33.089,124.657-104.264,361.274-228.92,394.362"/>
	<path fill="none" stroke="#03BF83" stroke-width="1.0949" stroke-opacity="0.498" d="M147.447,532.951
		C71.021,405.508,147.545,99.704,274.988,23.277"/>
	<path fill="none" stroke="#787807" stroke-width="1.5328" stroke-opacity="0.498" d="M147.447,532.951
		c61.365-58.162,240.656-53.356,298.818,8.009"/>
	<path fill="none" d="M147.447,532.951c63.538-71.441,266.008-83.295,337.448-19.757"/>
	<path fill="none" stroke="#07EA07" stroke-width="2.6277" stroke-opacity="0.498" d="M147.447,532.951
		C73.948,508.76-0.014,362.225,24.177,288.725"/>
	<path fill="none" stroke="#03BF83" stroke-width="0.438" stroke-opacity="0.498" d="M147.447,532.951
		C61.754,419.762,103,121.437,216.189,35.744"/>
	<path fill="none" stroke="#07EA07" stroke-width="3.2847" stroke-opacity="0.498" d="M147.447,532.951
		C83.572,517.667,10.686,398.928,25.97,335.052"/>
	<path fill="none" stroke="#07EA07" stroke-width="1.3139" stroke-opacity="0.498" d="M147.447,532.951
		c-49.648-6.418-114.493-90.516-108.075-140.164"/>
	<path fill="none" stroke="#07EA07" stroke-width="0.6569" stroke-opacity="0.498" d="M147.447,532.951
		c-38.848-2.137-93.915-63.614-91.778-102.463"/>
	<path fill="none" d="M147.447,532.951c-25.737,0.777-65.507-36.664-66.284-62.4"/>
	<path fill="none" stroke="#07EA07" stroke-width="0.219" stroke-opacity="0.498" d="M147.447,532.951
		c-11.19,1.377-30.04-13.342-31.417-24.531"/>
	<path fill="none" stroke="#787807" stroke-width="0.219" stroke-opacity="0.498" d="M147.447,532.951
		c12.328-151.543,258.135-360.364,409.678-348.036"/>
	<path fill="none" stroke="#07EA07" stroke-width="0.438" stroke-opacity="0.498" d="M147.447,532.951
		c8.342-2.115,24.03,7.225,26.146,15.566"/>
	<path fill="none" stroke="#03BF83" stroke-width="0.219" stroke-opacity="0.498" d="M147.447,532.951
		c-94.196-75.998-121.492-331.289-45.494-425.484"/>
	<path fill="none" stroke="#787807" stroke-width="0.438" stroke-opacity="0.498" d="M147.447,532.951
		C129.629,376.492,337.59,115.076,494.049,97.258"/>
	<path fill="none" stroke="#07EA07" stroke-width="0.6569" stroke-opacity="0.498" d="M147.447,532.951
		c17.124-5.445,50.978,12.074,56.423,29.197"/>
	<path fill="none" d="M147.447,532.951c25.933-10.086,79.961,13.684,90.047,39.616"/>
	<path fill="none" stroke="#03BF83" stroke-width="1.9708" stroke-opacity="0.498" d="M147.447,532.951
		C58.37,483.451-0.995,275.586,48.505,186.509"/>
	<path fill="none" d="M147.447,532.951c35.17-16.68,112.945,11.057,129.625,46.228"/>
	<path fill="none" stroke="#03BF83" stroke-width="0.438" stroke-opacity="0.498" d="M147.447,532.951
		C64.708,496.436-4.627,317.553,31.889,234.813"/>
	<path fill="none" stroke="#787807" stroke-width="0.438" stroke-opacity="0.498" d="M147.447,532.951
		C86.15,391.281,206.709,86.831,348.379,25.533"/>
	<path fill="none" stroke="#07EA07" stroke-width="1.9708" stroke-opacity="0.498" d="M147.447,532.951
		c45.417-26.887,153.872,0.909,180.758,46.326"/>
	<path fill="none" stroke="#07EA07" stroke-width="1.3139" stroke-opacity="0.498" d="M147.447,532.951
		c53.568-38.68,191.939-16.347,230.619,37.222"/>
	<path fill="none" stroke="#07EA07" stroke-width="0.8759" stroke-opacity="0.498" d="M147.447,532.951
		c57.818-47.426,215.684-31.837,263.109,25.981"/>
	<path fill="none" d="M173.593,548.518c53.023-56.046,216.626-60.58,272.673-7.558"/>
	<path fill="none" stroke="#787807" stroke-width="1.5328" stroke-opacity="0.498" d="M173.593,548.518
		C221.035,438.509,457.211,344.657,567.22,392.1"/>
	<path fill="none" stroke="#07EA07" stroke-width="5.4745" stroke-opacity="0.498" d="M173.593,548.518
		c8.782-3.329,26.948,4.85,30.278,13.631"/>
	<path fill="none" stroke="#03BF83" stroke-width="0.219" stroke-opacity="0.498" d="M173.593,548.518
		C82.511,514.117-2.512,325.895,31.889,234.813"/>
	<path fill="none" stroke="#EA0707" stroke-width="0.6569" stroke-opacity="0.498" d="M536.324,147.382
		c60.703,96.727,6.668,332.874-90.059,393.578"/>
	<path fill="none" stroke="#EA0707" stroke-width="0.6569" stroke-opacity="0.498" d="M536.324,147.382
		c62.877,83.448,32.02,302.935-51.429,365.812"/>
	<path fill="none" stroke="#EA0707" stroke-width="6.7883" stroke-opacity="0.498" d="M536.324,147.382
		c55.122,42.764,73.66,189.594,30.896,244.717"/>
	<path fill="none" stroke="#787807" stroke-width="0.219" stroke-opacity="0.498" d="M536.324,147.382
		c-39.51,152.752-327.902,322.616-480.655,283.106"/>
	<path fill="none" stroke="#787807" stroke-width="0.6569" stroke-opacity="0.498" d="M536.324,147.382
		c7.681,152.773-209.958,393.455-362.731,401.135"/>
	<path fill="none" stroke="#754D83" stroke-width="1.0949" stroke-opacity="0.498" d="M536.324,147.382
		c-83.401,118.374-386.063,170.832-504.436,87.431"/>
	<path fill="none" stroke="#EA0707" stroke-width="11.6058" stroke-opacity="0.498" d="M536.324,147.382
		c-61.959,13.219-174.727-59.89-187.945-121.849"/>
	<path fill="none" d="M519.067,123.966C450.114,152.644,303.666,92.23,274.988,23.277"/>
	<path fill="none" d="M519.067,123.966c68.839,97.959,25.157,348.155-72.802,416.994"/>
	<path fill="none" d="M519.067,123.966c71.012,84.68,50.509,318.217-34.172,389.229"/>
	<path fill="none" d="M519.067,123.966c-66.026,131.93-362.96,230.786-494.891,164.759"/>
	<path fill="none" stroke="#EA0707" stroke-width="0.438" stroke-opacity="0.498" d="M519.067,123.966
		c67.469,54.479,86.954,237.399,32.476,304.868"/>
	<path fill="none" stroke="#EA0707" stroke-width="3.9416" stroke-opacity="0.498" d="M519.067,123.966
		c63.257,43.996,92.148,204.876,48.152,268.134"/>
	<path fill="none" d="M519.067,123.966c57.646,34.298,92.666,172.214,58.368,229.859"/>
	<path fill="none" stroke="#EA0707" stroke-width="8.3212" stroke-opacity="0.498" d="M519.067,123.966
		c41.585,16.917,78.585,104.667,61.669,146.251"/>
	<path fill="none" d="M519.067,123.966c19.802,4.578,42.636,41.148,38.058,60.95"/>
	<path fill="none" d="M519.067,123.966c-86.722,80.123-336.991,70.224-417.114-16.499"/>
	<path fill="none" d="M519.067,123.966c-20.968,0.733-53.519-29.617-54.253-50.585"/>
	<path fill="none" stroke="#EA0707" stroke-width="17.9562" stroke-opacity="0.498" d="M519.067,123.966
		c-26.789,1.949-69.897-35.312-71.847-62.101"/>
	<path fill="none" stroke="#EA0707" stroke-width="15.5474" stroke-opacity="0.498" d="M519.067,123.966
		c-36.058,4.867-97.444-41.918-102.312-77.976"/>
	<path fill="none" stroke="#EA0707" stroke-width="30" stroke-opacity="0.498" d="M519.067,123.966
		c-45.034,8.974-126.046-45.116-135.02-90.149"/>
	<path fill="none" stroke="#754D83" stroke-width="0.219" stroke-opacity="0.498" d="M519.067,123.966
		C443.801,243.571,151.494,310.08,31.889,234.813"/>
	<path fill="none" stroke="#EA0707" stroke-width="3.5036" stroke-opacity="0.498" d="M519.067,123.966
		c-53.823,14.451-156.237-44.608-170.688-98.433"/>
	<path fill="none" stroke="#0094FF" stroke-width="7.4453" stroke-opacity="0.498" d="M101.954,107.467
		c17.769-51.445,121.59-101.959,173.035-84.189"/>
	<path fill="none" stroke="#754D83" stroke-width="0.8759" stroke-opacity="0.498" d="M101.954,107.467
		c155.561,17.836,362.148,277.932,344.312,433.493"/>
	<path fill="none" stroke="#754D83" stroke-width="0.438" stroke-opacity="0.498" d="M101.954,107.467
		c157.734,4.557,387.5,247.994,382.942,405.728"/>
	<path fill="none" stroke="#0094FF" stroke-width="0.438" stroke-opacity="0.498" d="M101.954,107.467
		c8.503-37.192,77.044-80.226,114.236-71.723"/>
	<path fill="none" stroke="#03BF83" stroke-width="0.219" stroke-opacity="0.498" d="M101.954,107.467
		c30.32,60.714-15.27,197.265-75.984,227.585"/>
	<path fill="none" stroke="#754D83" stroke-width="0.438" stroke-opacity="0.498" d="M101.954,107.467
		C251.934,71.34,531.093,242.119,567.22,392.1"/>
	<path fill="none" d="M101.954,107.467c3.458-24.677,45.662-56.506,70.339-53.047"/>
	<path fill="none" stroke="#0094FF" stroke-width="2.8467" stroke-opacity="0.498" d="M101.954,107.467
		c0.8-12.825,21.237-30.862,34.062-30.063"/>
	<path fill="none" d="M101.954,107.467c116.981-70.76,398.593-1.429,469.353,115.552"/>
	<path fill="none" d="M101.954,107.467c0.256-8.049,12.714-19.738,20.763-19.481"/>
	<path fill="none" stroke="#03BF83" stroke-width="1.9708" stroke-opacity="0.498" d="M101.954,107.467
		c83.006,77.375,91.452,317.947,14.076,400.953"/>
	<path fill="none" stroke="#754D83" stroke-width="1.0949" stroke-opacity="0.498" d="M101.954,107.467
		c106.524-75.545,379.626-29.075,455.171,77.449"/>
	<path fill="none" d="M101.954,107.467c94.857-78.891,355.48-54.941,434.371,39.916"/>
	<path fill="none" stroke="#754D83" stroke-width="0.219" stroke-opacity="0.498" d="M101.954,107.467
		c65.755-79.39,283.472-99.841,362.861-34.086"/>
	<path fill="none" d="M101.954,107.467c111.32,70.553,172.47,343.362,101.917,454.682"/>
	<path fill="none" stroke="#0094FF" stroke-width="4.8175" stroke-opacity="0.498" d="M101.954,107.467
		c5.119,26.498-26.95,73.923-53.448,79.042"/>
	<path fill="none" d="M101.954,107.467c129.366,59.318,234.437,342.346,175.119,471.712"/>
	<path fill="none" stroke="#754D83" stroke-width="0.438" stroke-opacity="0.498" d="M101.954,107.467
		C152.619,32.211,341.5-4.675,416.756,45.99"/>
	<path fill="none" d="M101.954,107.467c41.689-71.149,210.945-115.339,282.094-73.65"/>
	<path fill="none" stroke="#0094FF" stroke-width="1.9708" stroke-opacity="0.498" d="M101.954,107.467
		c11.457,39.482-30.583,115.89-70.065,127.346"/>
	<path fill="none" stroke="#754D83" stroke-width="0.6569" stroke-opacity="0.498" d="M101.954,107.467
		C134.852,41.795,282.708-7.365,348.379,25.533"/>
	<path fill="none" stroke="#03BF83" stroke-width="0.219" stroke-opacity="0.498" d="M101.954,107.467
		c139.613,49.112,275.364,332.198,226.251,471.811"/>
	<path fill="none" d="M101.954,107.467c152.014,28.572,337.176,299.451,308.603,451.466"/>
	<path fill="none" stroke="#754D83" stroke-width="0.6569" stroke-opacity="0.498" d="M101.954,107.467
		C126.837,48.391,252.775-2.897,311.852,21.985"/>
	<path fill="none" stroke="#754D83" stroke-width="4.3796" stroke-opacity="0.498" d="M494.049,97.258
		c-58.607,29.016-190.045-15.373-219.061-73.98"/>
	<path fill="none" stroke="#EA0707" stroke-width="0.219" stroke-opacity="0.498" d="M494.049,97.258
		c79.184,98.297,50.514,364.519-47.783,443.702"/>
	<path fill="none" stroke="#EA0707" stroke-width="1.0949" stroke-opacity="0.498" d="M494.049,97.258
		c81.357,85.018,75.865,334.58-9.153,415.937"/>
	<path fill="none" stroke="#787807" stroke-width="0.219" stroke-opacity="0.498" d="M494.049,97.258
		C438.368,229.525,156.445,344.406,24.177,288.725"/>
	<path fill="none" stroke="#754D83" stroke-width="0.219" stroke-opacity="0.498" d="M494.049,97.258
		c-67.875,43.269-234.59,6.36-277.859-61.514"/>
	<path fill="none" stroke="#EA0707" stroke-width="0.438" stroke-opacity="0.498" d="M494.049,97.258
		c81.512,75.414,90.657,310.801,15.243,392.313"/>
	<path fill="none" stroke="#EA0707" stroke-width="1.5328" stroke-opacity="0.498" d="M494.049,97.258
		c80.496,65.844,102.473,285.354,36.629,365.851"/>
	<path fill="none" stroke="#EA0707" stroke-width="0.219" stroke-opacity="0.498" d="M494.049,97.258
		c77.814,54.816,112.311,253.762,57.494,331.576"/>
	<path fill="none" stroke="#EA0707" stroke-width="1.3139" stroke-opacity="0.498" d="M494.049,97.258
		c73.603,44.334,117.505,221.238,73.171,294.842"/>
	<path fill="none" stroke="#EA0707" stroke-width="1.3139" stroke-opacity="0.498" d="M494.049,97.258
		c67.991,34.636,118.022,188.577,83.387,256.567"/>
	<path fill="none" stroke="#754D83" stroke-width="0.219" stroke-opacity="0.498" d="M494.049,97.258
		c-72.918,55.783-265.972,30.081-321.756-42.838"/>
	<path fill="none" d="M494.049,97.258C454.836,243.223,177.069,403.352,31.104,364.14"/>
	<path fill="none" d="M494.049,97.258c-74.406,61.351-278.043,41.767-339.394-32.64"/>
	<path fill="none" stroke="#787807" stroke-width="0.438" stroke-opacity="0.498" d="M494.049,97.258
		C473.02,251.58,209.992,451.519,55.669,430.488"/>
	<path fill="none" d="M494.049,97.258c-75.577,67.636-290.397,55.724-358.034-19.854"/>
	<path fill="none" stroke="#EA0707" stroke-width="1.5328" stroke-opacity="0.498" d="M494.049,97.258
		c47.51,13.966,97.824,106.18,83.858,153.689"/>
	<path fill="none" stroke="#EA0707" stroke-width="6.1314" stroke-opacity="0.498" d="M494.049,97.258
		c40.604,9.7,86.959,85.157,77.258,125.761"/>
	<path fill="none" stroke="#787807" stroke-width="0.8759" stroke-opacity="0.498" d="M494.049,97.258
		c-7.918,157.235-255.65,381.211-412.886,373.293"/>
	<path fill="none" stroke="#787807" stroke-width="1.9708" stroke-opacity="0.498" d="M494.049,97.258
		c6.629,157.836-220.183,404.533-378.019,411.162"/>
	<path fill="none" stroke="#EA0707" stroke-width="1.7518" stroke-opacity="0.498" d="M494.049,97.258
		c30.147,4.916,67.992,57.511,63.076,87.658"/>
	<path fill="none" stroke="#787807" stroke-width="0.219" stroke-opacity="0.498" d="M494.049,97.258
		c26.161,154.343-166.112,425.1-320.456,451.26"/>
	<path fill="none" stroke="#EA0707" stroke-width="0.438" stroke-opacity="0.498" d="M494.049,97.258
		c18.48,1.57,43.846,31.645,42.275,50.125"/>
	<path fill="none" d="M494.049,97.258c10.346,0.338,25.356,16.362,25.019,26.708"/>
	<path fill="none" stroke="#754D83" stroke-width="0.438" stroke-opacity="0.498" d="M494.049,97.258
		c-76.377,80.461-311.634,86.586-392.095,10.209"/>
	<path fill="none" d="M494.049,97.258c-10.622,1.071-28.162-13.255-29.234-23.877"/>
	<path fill="none" d="M494.049,97.258c-75.602,90.09-324.14,111.822-414.229,36.22"/>
	<path fill="none" stroke="#754D83" stroke-width="0.6569" stroke-opacity="0.498" d="M494.049,97.258
		c-74.375,96.683-330.962,130.145-427.645,55.77"/>
	<path fill="none" d="M494.049,97.258c34.943,151.014-139.164,429.949-290.178,464.891"/>
	<path fill="none" stroke="#787807" stroke-width="0.219" stroke-opacity="0.498" d="M494.049,97.258
		c43.752,146.373-110.182,431.559-256.554,475.31"/>
	<path fill="none" stroke="#754D83" stroke-width="1.0949" stroke-opacity="0.498" d="M494.049,97.258
		c-71.258,106.959-338.584,160.51-445.543,89.251"/>
	<path fill="none" stroke="#EA0707" stroke-width="5.6934" stroke-opacity="0.498" d="M494.049,97.258
		c-25.712,5.205-72.088-25.556-77.293-51.268"/>
	<path fill="none" stroke="#754D83" stroke-width="2.4088" stroke-opacity="0.498" d="M494.049,97.258
		c-64.92,119.943-342.217,202.477-462.16,137.555"/>
	<path fill="none" stroke="#EA0707" stroke-width="2.4088" stroke-opacity="0.498" d="M494.049,97.258
		c-43.479,14.789-130.881-28.246-145.67-71.725"/>
	<path fill="none" stroke="#787807" stroke-width="0.6569" stroke-opacity="0.498" d="M494.049,97.258
		c63.236,129.572-36.271,418.784-165.844,482.02"/>
	<path fill="none" d="M494.049,97.258c71.387,117.779,1.797,401.528-115.982,472.915"/>
	<path fill="none" stroke="#EA0707" stroke-width="0.219" stroke-opacity="0.498" d="M494.049,97.258
		c-51.494,21.385-160.813-23.778-182.197-75.272"/>
	<path fill="none" d="M464.814,73.381c89.807,97.226,78.677,377.773-18.549,467.579"/>
	<path fill="none" stroke="#EA0707" stroke-width="0.219" stroke-opacity="0.498" d="M464.814,73.381
		c91.979,83.946,104.027,347.834,20.081,439.813"/>
	<path fill="none" stroke="#EA0707" stroke-width="0.438" stroke-opacity="0.498" d="M464.814,73.381
		C549.039,116.644,610.482,307.874,567.22,392.1"/>
	<path fill="none" d="M464.814,73.381c-64.955,66.564-262.235,68.979-328.799,4.023"/>
	<path fill="none" d="M464.814,73.381c2.703,156.164-227.487,394.466-383.651,397.17"/>
	<path fill="none" stroke="#EA0707" stroke-width="0.219" stroke-opacity="0.498" d="M464.814,73.381
		c29.102,0.499,72.008,44.899,71.51,74.001"/>
	<path fill="none" stroke="#754D83" stroke-width="0.219" stroke-opacity="0.498" d="M464.814,73.381
		C410.516,192.252,150.76,289.112,31.889,234.813"/>
	<path fill="none" stroke="#EA0707" stroke-width="0.219" stroke-opacity="0.498" d="M464.814,73.381
		C431.958,87.099,362.097,58.39,348.379,25.533"/>
	<path fill="none" stroke="#787807" stroke-width="0.8759" stroke-opacity="0.498" d="M464.814,73.381
		c73.857,128.501-8.107,432.039-136.609,505.896"/>
	<path fill="none" stroke="#754D83" stroke-width="0.219" stroke-opacity="0.498" d="M79.819,133.478
		c156.958-5.072,400.005,222.758,405.076,379.717"/>
	<path fill="none" stroke="#754D83" stroke-width="0.219" stroke-opacity="0.498" d="M79.819,133.478
		C229.023,87.722,521.464,242.895,567.22,392.1"/>
	<path fill="none" d="M79.819,133.478C217.956,70.884,519.053,184.2,581.646,322.337"/>
	<path fill="none" d="M79.819,133.478c54.572,64.232,40.082,242.438-24.15,297.011"/>
	<path fill="none" d="M79.819,133.478C138.977,45.675,359.418,2.707,447.221,61.865"/>
	<path fill="none" stroke="#03BF83" stroke-width="0.438" stroke-opacity="0.498" d="M237.495,572.567
		c-102.359-117.356-79.863-446.931,37.494-549.29"/>
	<path fill="none" stroke="#787807" stroke-width="0.438" stroke-opacity="0.498" d="M237.495,572.567
		c37.605-61.354,186.046-96.979,247.401-59.373"/>
	<path fill="none" stroke="#03BF83" stroke-width="2.8467" stroke-opacity="0.498" d="M237.495,572.567
		C125.869,469.464,113.086,147.369,216.189,35.744"/>
	<path fill="none" stroke="#07EA07" stroke-width="0.6569" stroke-opacity="0.498" d="M237.495,572.567
		C147.687,567.369,20.771,424.859,25.97,335.052"/>
	<path fill="none" stroke="#07EA07" stroke-width="2.4088" stroke-opacity="0.498" d="M237.495,572.567
		c-75.581,3.669-194.454-104.2-198.123-179.78"/>
	<path fill="none" stroke="#07EA07" stroke-width="0.6569" stroke-opacity="0.498" d="M237.495,572.567
		c-64.781,7.95-173.876-77.298-181.825-142.079"/>
	<path fill="none" stroke="#03BF83" stroke-width="0.8759" stroke-opacity="0.498" d="M237.495,572.567
		C118.166,493.83,57.278,196.732,136.015,77.404"/>
	<path fill="none" d="M237.495,572.567c3.758-132.406,208.005-325.379,340.413-321.62"/>
	<path fill="none" d="M237.495,572.567c-3.147-136.672,197.14-346.401,333.812-349.548"/>
	<path fill="none" stroke="#07EA07" stroke-width="2.1898" stroke-opacity="0.498" d="M237.495,572.567
		c-51.67,10.863-145.468-50.347-156.332-102.017"/>
	<path fill="none" d="M237.495,572.567C117.623,498.606,48.756,207.857,122.717,87.985"/>
	<path fill="none" stroke="#07EA07" stroke-width="0.6569" stroke-opacity="0.498" d="M237.495,572.567
		c-37.123,11.464-110.001-27.024-121.465-64.147"/>
	<path fill="none" stroke="#787807" stroke-width="0.8759" stroke-opacity="0.498" d="M237.495,572.567
		C223.89,431.111,415.668,198.52,557.125,184.916"/>
	<path fill="none" stroke="#07EA07" stroke-width="0.219" stroke-opacity="0.498" d="M237.495,572.567
		c-17.59,7.971-55.931-6.459-63.902-24.05"/>
	<path fill="none" stroke="#787807" stroke-width="0.6569" stroke-opacity="0.498" d="M237.495,572.567
		c-54.374-145.302,82.019-444.813,227.32-499.187"/>
	<path fill="none" stroke="#03BF83" stroke-width="1.0949" stroke-opacity="0.498" d="M237.495,572.567
		C119.368,522.878,16.714,271.153,66.404,153.027"/>
	<path fill="none" stroke="#07EA07" stroke-width="0.219" stroke-opacity="0.498" d="M237.495,572.567
		c-8.809,4.642-28.983-1.61-33.624-10.419"/>
	<path fill="none" d="M237.495,572.567C122.485,533.154,9.091,301.519,48.505,186.509"/>
	<path fill="none" stroke="#07EA07" stroke-width="2.6277" stroke-opacity="0.498" d="M237.495,572.567
		c9.238-6.593,32.984-2.626,39.578,6.611"/>
	<path fill="none" stroke="#03BF83" stroke-width="0.8759" stroke-opacity="0.498" d="M237.495,572.567
		C128.822,546.138,5.459,343.485,31.889,234.813"/>
	<path fill="none" stroke="#07EA07" stroke-width="1.0949" stroke-opacity="0.498" d="M237.495,572.567
		c19.484-16.8,73.911-12.774,90.71,6.71"/>
	<path fill="none" d="M237.495,572.567c27.635-28.593,111.979-30.03,140.572-2.395"/>
	<path fill="none" stroke="#07EA07" stroke-width="1.0949" stroke-opacity="0.498" d="M237.495,572.567
		c31.885-37.339,135.723-45.521,173.062-13.635"/>
	<path fill="none" stroke="#0094FF" stroke-width="0.8759" stroke-opacity="0.498" d="M48.505,186.509
		c12.65-77.943,148.54-175.882,226.483-163.231"/>
	<path fill="none" stroke="#754D83" stroke-width="0.438" stroke-opacity="0.498" d="M48.505,186.509
		c150.442-8.662,389.098,204.009,397.76,354.451"/>
	<path fill="none" stroke="#754D83" stroke-width="0.219" stroke-opacity="0.498" d="M48.505,186.509
		c152.615-21.941,414.45,174.07,436.39,326.686"/>
	<path fill="none" stroke="#0094FF" stroke-width="0.438" stroke-opacity="0.498" d="M48.505,186.509
		C48.002,131.851,129.234,49.11,183.892,48.607"/>
	<path fill="none" stroke="#03BF83" stroke-width="0.6569" stroke-opacity="0.498" d="M48.505,186.509
		c25.202,34.216,11.68,123.342-22.536,148.543"/>
	<path fill="none" stroke="#0094FF" stroke-width="2.6277" stroke-opacity="0.498" d="M48.505,186.509
		C46.845,135.333,121.118,56.08,172.293,54.42"/>
	<path fill="none" stroke="#03BF83" stroke-width="0.8759" stroke-opacity="0.498" d="M48.505,186.509
		c39.429,43.083,33.949,166.85-9.133,206.278"/>
	<path fill="none" stroke="#03BF83" stroke-width="0.8759" stroke-opacity="0.498" d="M48.505,186.509
		c50.229,47.363,54.527,193.751,7.164,243.979"/>
	<path fill="none" d="M48.505,186.509c118.768-92.993,436.409-54.33,529.402,64.438"/>
	<path fill="none" stroke="#754D83" stroke-width="1.5328" stroke-opacity="0.498" d="M48.505,186.509
		c111.862-97.258,425.543-75.352,522.801,36.51"/>
	<path fill="none" stroke="#03BF83" stroke-width="0.438" stroke-opacity="0.498" d="M48.505,186.509
		c63.34,50.277,82.935,220.702,32.658,284.042"/>
	<path fill="none" stroke="#754D83" stroke-width="1.5328" stroke-opacity="0.498" d="M48.505,186.509
		c101.405-102.042,406.577-102.999,508.62-1.593"/>
	<path fill="none" stroke="#03BF83" stroke-width="0.6569" stroke-opacity="0.498" d="M48.505,186.509
		c97.419,47.384,172.472,264.59,125.087,362.009"/>
	<path fill="none" stroke="#754D83" stroke-width="0.6569" stroke-opacity="0.498" d="M48.505,186.509
		c89.738-105.389,382.43-128.865,487.819-39.126"/>
	<path fill="none" stroke="#754D83" stroke-width="0.438" stroke-opacity="0.498" d="M48.505,186.509
		C109.142,80.621,358.928,12.745,464.814,73.381"/>
	<path fill="none" stroke="#0094FF" stroke-width="0.219" stroke-opacity="0.498" d="M48.505,186.509
		c-4.343-16.869,14.445-48.688,31.314-53.031"/>
	<path fill="none" stroke="#0094FF" stroke-width="6.3504" stroke-opacity="0.498" d="M48.505,186.509
		c-3.117-10.276,7.623-30.365,17.898-33.481"/>
	<path fill="none" stroke="#03BF83" stroke-width="0.219" stroke-opacity="0.498" d="M48.505,186.509
		c106.201,44.055,199.42,269.438,155.365,375.64"/>
	<path fill="none" stroke="#03BF83" stroke-width="0.6569" stroke-opacity="0.498" d="M48.505,186.509
		c124.247,32.821,261.387,268.423,228.567,392.67"/>
	<path fill="none" stroke="#754D83" stroke-width="1.3139" stroke-opacity="0.498" d="M48.505,186.509
		C94.052,84.755,315.002,0.443,416.756,45.99"/>
	<path fill="none" stroke="#0094FF" stroke-width="2.8467" stroke-opacity="0.498" d="M48.505,186.509
		c6.337,12.984-3.632,41.967-16.617,48.304"/>
	<path fill="none" stroke="#754D83" stroke-width="0.8759" stroke-opacity="0.498" d="M48.505,186.509
		C76.285,94.339,256.209-2.247,348.379,25.533"/>
	<path fill="none" stroke="#03BF83" stroke-width="1.5328" stroke-opacity="0.498" d="M48.505,186.509
		c134.494,22.614,302.314,258.274,279.7,392.769"/>
	<path fill="none" stroke="#03BF83" stroke-width="1.5328" stroke-opacity="0.498" d="M48.505,186.509
		c142.645,10.82,340.381,241.019,329.561,383.664"/>
	<path fill="none" d="M48.505,186.509c146.895,2.074,364.126,225.528,362.051,372.424"/>
	<path fill="none" d="M48.505,186.509C68.27,100.935,226.277,2.221,311.852,21.985"/>
	<path fill="none" stroke="#EA0707" stroke-width="4.5985" stroke-opacity="0.498" d="M447.221,61.865
		C537.268,103.912,609.267,302.052,567.22,392.1"/>
	<path fill="none" stroke="#EA0707" stroke-width="2.8467" stroke-opacity="0.498" d="M447.221,61.865
		c68.374,14.967,148.482,139.979,133.516,208.353"/>
	<path fill="none" stroke="#EA0707" stroke-width="0.8759" stroke-opacity="0.498" d="M447.221,61.865
		c-27.034,12.502-86.34-9.297-98.842-36.332"/>
	<path fill="none" stroke="#787807" stroke-width="1.3139" stroke-opacity="0.498" d="M277.072,579.179
		c26.195-41.482,127.711-64.413,169.193-38.219"/>
	<path fill="none" d="M277.072,579.179C297.686,483.733,471.774,371.485,567.22,392.1"/>
	<path fill="none" stroke="#07EA07" stroke-width="0.438" stroke-opacity="0.498" d="M277.072,579.179
		c-74.019,14.542-206.86-74.671-221.403-148.69"/>
	<path fill="none" d="M277.072,579.179C148.506,507.035,63.872,205.97,136.015,77.404"/>
	<path fill="none" stroke="#07EA07" stroke-width="1.9708" stroke-opacity="0.498" d="M277.072,579.179
		c-26.828,14.563-88.916-3.833-103.479-30.661"/>
	<path fill="none" stroke="#07EA07" stroke-width="0.219" stroke-opacity="0.498" d="M277.072,579.179
		c-18.046,11.234-61.967,1.017-73.202-17.03"/>
	<path fill="none" stroke="#03BF83" stroke-width="0.6569" stroke-opacity="0.498" d="M277.072,579.179
		c-117.91-19.837-265.02-226.456-245.184-344.366"/>
	<path fill="none" stroke="#787807" stroke-width="0.219" stroke-opacity="0.498" d="M277.072,579.179
		c-96.468-124.991-53.684-457.178,71.307-553.646"/>
	<path fill="none" stroke="#07EA07" stroke-width="1.7518" stroke-opacity="0.498" d="M277.072,579.179
		c10.246-10.207,40.926-10.147,51.133,0.099"/>
	<path fill="none" stroke="#07EA07" stroke-width="0.6569" stroke-opacity="0.498" d="M277.072,579.179
		c18.397-22,78.994-27.403,100.994-9.006"/>
	<path fill="none" stroke="#754D83" stroke-width="1.0949" stroke-opacity="0.498" d="M416.756,45.99
		c-32.896,23.811-117.957,10.183-141.768-22.712"/>
	<path fill="none" stroke="#EA0707" stroke-width="5.9124" stroke-opacity="0.498" d="M416.756,45.99
		c104.896,93.092,122.602,390.075,29.51,494.97"/>
	<path fill="none" stroke="#EA0707" stroke-width="0.8759" stroke-opacity="0.498" d="M416.756,45.99
		c107.068,79.813,147.953,360.135,68.14,467.205"/>
	<path fill="none" stroke="#EA0707" stroke-width="4.1606" stroke-opacity="0.498" d="M416.756,45.99
		C516.07,85.119,606.349,292.784,567.22,392.1"/>
	<path fill="none" stroke="#EA0707" stroke-width="1.0949" stroke-opacity="0.498" d="M416.756,45.99
		c88.247,22.292,187.182,188.1,164.89,276.347"/>
	<path fill="none" stroke="#EA0707" stroke-width="0.438" stroke-opacity="0.498" d="M416.756,45.99
		c77.641,12.049,176.029,146.586,163.98,224.228"/>
	<path fill="none" stroke="#754D83" stroke-width="0.219" stroke-opacity="0.498" d="M416.756,45.99
		c-47.207,50.579-193.884,55.636-244.463,8.43"/>
	<path fill="none" stroke="#787807" stroke-width="1.0949" stroke-opacity="0.498" d="M416.756,45.99
		C403.255,186.75,171.864,377.64,31.104,364.14"/>
	<path fill="none" stroke="#787807" stroke-width="2.4088" stroke-opacity="0.498" d="M416.756,45.99
		c4.682,149.117-211.969,379.817-361.086,384.499"/>
	<path fill="none" stroke="#754D83" stroke-width="0.219" stroke-opacity="0.498" d="M416.756,45.99
		c-49.865,62.431-218.31,81.279-280.741,31.414"/>
	<path fill="none" stroke="#EA0707" stroke-width="3.9416" stroke-opacity="0.498" d="M416.756,45.99
		c73.221,8.761,169.912,131.736,161.151,204.958"/>
	<path fill="none" stroke="#EA0707" stroke-width="0.438" stroke-opacity="0.498" d="M416.756,45.99
		c66.316,4.496,159.047,110.713,154.551,177.029"/>
	<path fill="none" stroke="#787807" stroke-width="2.4088" stroke-opacity="0.498" d="M416.756,45.99
		c17.793,152.031-183.562,406.767-335.593,424.561"/>
	<path fill="none" stroke="#EA0707" stroke-width="16.6423" stroke-opacity="0.498" d="M416.756,45.99
		c55.858-0.289,140.08,83.067,140.369,138.926"/>
	<path fill="none" stroke="#EA0707" stroke-width="6.3504" stroke-opacity="0.498" d="M416.756,45.99
		c44.191-3.635,115.933,57.201,119.568,101.393"/>
	<path fill="none" stroke="#EA0707" stroke-width="2.1898" stroke-opacity="0.498" d="M416.756,45.99
		c15.09-4.134,43.926,12.301,48.059,27.391"/>
	<path fill="none" stroke="#754D83" stroke-width="0.219" stroke-opacity="0.498" d="M416.756,45.99
		c-49.891,84.885-252.052,137.377-336.937,87.488"/>
	<path fill="none" stroke="#754D83" stroke-width="0.219" stroke-opacity="0.498" d="M416.756,45.99
		c-48.663,91.478-258.874,155.7-350.352,107.038"/>
	<path fill="none" stroke="#787807" stroke-width="0.8759" stroke-opacity="0.498" d="M416.756,45.99
		c60.654,145.809-67.076,455.504-212.885,516.159"/>
	<path fill="none" stroke="#EA0707" stroke-width="1.9708" stroke-opacity="0.498" d="M416.756,45.99
		c9.268-2.918,27.547,6.607,30.465,15.875"/>
	<path fill="none" stroke="#EA0707" stroke-width="4.8175" stroke-opacity="0.498" d="M416.756,45.99
		c-8.977,4.107-28.602-3.197-32.708-12.173"/>
	<path fill="none" stroke="#754D83" stroke-width="2.4088" stroke-opacity="0.498" d="M416.756,45.99
		C377.547,160.728,146.626,274.022,31.889,234.813"/>
	<path fill="none" stroke="#EA0707" stroke-width="23.6496" stroke-opacity="0.498" d="M416.756,45.99
		c-17.768,9.584-58.793-2.69-68.377-20.457"/>
	<path fill="none" stroke="#787807" stroke-width="0.8759" stroke-opacity="0.498" d="M416.756,45.99
		c88.947,124.368,35.817,444.34-88.551,533.288"/>
	<path fill="none" stroke="#EA0707" stroke-width="3.5036" stroke-opacity="0.498" d="M416.756,45.99
		c-25.782,16.18-88.725,1.778-104.904-24.004"/>
	<path fill="none" d="M384.048,33.816c113.872,88.985,151.203,393.271,62.218,507.144"/>
	<path fill="none" stroke="#EA0707" stroke-width="2.6277" stroke-opacity="0.498" d="M384.048,33.816
		C492.339,68.838,602.242,283.808,567.22,392.1"/>
	<path fill="none" stroke="#EA0707" stroke-width="5.2555" stroke-opacity="0.498" d="M384.048,33.816
		c86.618,7.942,204.631,149.783,196.688,236.401"/>
	<path fill="none" d="M384.048,33.816c24.066-8.241,72.526,15.498,80.767,39.564"/>
	<path fill="none" stroke="#EA0707" stroke-width="14.4526" stroke-opacity="0.498" d="M384.048,33.816
		c18.244-7.025,56.147,9.804,63.173,28.048"/>
	<path fill="none" stroke="#754D83" stroke-width="0.219" stroke-opacity="0.498" d="M384.048,33.816
		C353.815,144.447,142.52,265.046,31.889,234.813"/>
	<path fill="none" stroke="#EA0707" stroke-width="3.7226" stroke-opacity="0.498" d="M384.048,33.816
		c-8.79,5.477-30.191,0.507-35.669-8.283"/>
	<path fill="none" stroke="#754D83" stroke-width="0.219" stroke-opacity="0.498" d="M31.889,234.813
		c144.104-21.646,392.73,162.042,414.377,306.147"/>
	<path fill="none" stroke="#754D83" stroke-width="0.6569" stroke-opacity="0.498" d="M31.889,234.813
		c146.277-34.925,418.082,132.103,453.007,278.381"/>
	<path fill="none" stroke="#754D83" stroke-width="1.3139" stroke-opacity="0.498" d="M31.889,234.813
		C170.412,159.204,491.61,253.576,567.22,392.1"/>
	<path fill="none" stroke="#0094FF" stroke-width="0.219" stroke-opacity="0.498" d="M31.889,234.813
		c-9.454-23.26,11.255-72.332,34.515-81.786"/>
	<path fill="none" d="M31.889,234.813c99.863,31.071,203.053,227.472,171.982,327.335"/>
	<path fill="none" stroke="#EA0707" stroke-width="10.292" stroke-opacity="0.498" d="M348.379,25.533
		c122.663,83.508,181.395,392.764,97.887,515.427"/>
	<path fill="none" stroke="#EA0707" stroke-width="5.0365" stroke-opacity="0.498" d="M348.379,25.533
		c124.836,70.229,206.746,362.826,136.517,487.661"/>
	<path fill="none" stroke="#EA0707" stroke-width="10.7299" stroke-opacity="0.498" d="M348.379,25.533
		C465.461,55.078,596.765,275.018,567.22,392.1"/>
	<path fill="none" d="M348.379,25.533c95.408,2.465,234.822,149.276,232.357,244.684"/>
	<path fill="none" stroke="#787807" stroke-width="5.6934" stroke-opacity="0.498" d="M348.379,25.533
		C370.828,165.066,195.203,408.04,55.669,430.488"/>
	<path fill="none" stroke="#787807" stroke-width="0.219" stroke-opacity="0.498" d="M348.379,25.533
		c69.641,139.554-35.232,453.346-174.786,522.984"/>
	<path fill="none" stroke="#787807" stroke-width="2.4088" stroke-opacity="0.498" d="M348.379,25.533
		c78.422,136.225-8.283,458.194-144.508,536.615"/>
	<path fill="none" stroke="#754D83" stroke-width="0.8759" stroke-opacity="0.498" d="M348.379,25.533
		c-21.441,105.154-211.336,230.722-316.49,209.28"/>
	<path fill="none" stroke="#787807" stroke-width="0.6569" stroke-opacity="0.498" d="M328.205,579.277
		c15.949-31.275,86.785-54.266,118.061-38.317"/>
	<path fill="none" d="M328.205,579.277c18.122-44.555,112.136-84.205,156.69-66.083"/>
	<path fill="none" d="M328.205,579.277C338.572,494.039,481.98,381.732,567.22,392.1"/>
	<path fill="none" stroke="#07EA07" stroke-width="0.6569" stroke-opacity="0.498" d="M328.205,579.277
		c-84.264,24.75-247.786-64.523-272.536-148.789"/>
	<path fill="none" stroke="#07EA07" stroke-width="0.6569" stroke-opacity="0.498" d="M328.205,579.277
		c-71.153,27.663-219.379-37.572-247.042-108.727"/>
	<path fill="none" d="M328.205,579.277c-44.755-128.002,80.116-387.14,208.119-431.895"/>
	<path fill="none" stroke="#07EA07" stroke-width="0.438" stroke-opacity="0.498" d="M328.205,579.277
		c-28.292,21.441-102.893,11.164-124.334-17.129"/>
	<path fill="none" d="M328.205,579.277C200.049,569.648,22.259,362.969,31.889,234.813"/>
	<path fill="none" d="M328.205,579.277c-106.713-114.783-94.609-447.03,20.174-553.744"/>
	<path fill="none" stroke="#787807" stroke-width="0.6569" stroke-opacity="0.498" d="M378.066,570.173
		c2.217-73.445,115.708-180.29,189.153-178.073"/>
	<path fill="none" stroke="#07EA07" stroke-width="0.219" stroke-opacity="0.498" d="M378.066,570.173
		C285.65,606.716,92.212,522.905,55.669,430.488"/>
	<path fill="none" stroke="#07EA07" stroke-width="0.6569" stroke-opacity="0.498" d="M378.066,570.173
		c-79.305,39.456-257.447-20.317-296.903-99.622"/>
	<path fill="none" stroke="#07EA07" stroke-width="3.0657" stroke-opacity="0.498" d="M378.066,570.173
		c-45.225,36.563-167.91,23.571-204.474-21.655"/>
	<path fill="none" stroke="#03BF83" stroke-width="0.219" stroke-opacity="0.498" d="M378.066,570.173
		C232.305,549.076,45.308,298.789,66.404,153.027"/>
	<path fill="none" stroke="#07EA07" stroke-width="0.8759" stroke-opacity="0.498" d="M378.066,570.173
		c-36.443,33.234-140.961,28.42-174.196-8.024"/>
	<path fill="none" stroke="#03BF83" stroke-width="1.3139" stroke-opacity="0.498" d="M378.066,570.173
		c-136.307,2.163-344.014-199.052-346.178-335.36"/>
	<path fill="none" stroke="#07EA07" stroke-width="3.7226" stroke-opacity="0.498" d="M378.066,570.173
		c-8.15,11.793-38.067,17.256-49.861,9.104"/>
	<path fill="none" d="M410.557,558.933c3.548-10.736,24.973-21.521,35.709-17.973"/>
	<path fill="none" d="M410.557,558.933c5.721-24.016,50.324-51.458,74.339-45.738"/>
	<path fill="none" stroke="#07EA07" stroke-width="15.1095" stroke-opacity="0.498" d="M410.557,558.933
		C288.864,591.074,58.111,456.746,25.97,335.052"/>
	<path fill="none" stroke="#07EA07" stroke-width="11.3869" stroke-opacity="0.498" d="M410.557,558.933
		C303.092,599.94,80.38,500.254,39.372,392.787"/>
	<path fill="none" d="M410.557,558.933c-83.555,48.202-281.191-4.827-329.394-88.382"/>
	<path fill="none" stroke="#07EA07" stroke-width="1.3139" stroke-opacity="0.498" d="M410.557,558.933
		c-49.475,45.31-191.654,39.062-236.964-10.415"/>
	<path fill="none" stroke="#03BF83" stroke-width="0.219" stroke-opacity="0.498" d="M410.557,558.933
		C260.545,546.582,54.054,303.039,66.404,153.027"/>
	<path fill="none" d="M410.557,558.933c-40.693,41.98-164.706,43.91-206.686,3.216"/>
	<path fill="none" stroke="#07EA07" stroke-width="0.438" stroke-opacity="0.498" d="M410.557,558.933
		c-22.646,30.746-102.738,42.894-133.484,20.246"/>
	<path fill="none" stroke="#07EA07" stroke-width="0.219" stroke-opacity="0.498" d="M410.557,558.933
		c-12.4,20.539-61.812,32.746-82.352,20.345"/>
	<path fill="none" stroke="#07EA07" stroke-width="1.9708" stroke-opacity="0.498" d="M410.557,558.933
		c-4.25,8.746-23.744,15.49-32.49,11.24"/>
</g>
<g id="nodes">
	<circle fill="#0094FF" stroke="#000000" stroke-width="0.5" cx="274.988" cy="23.277" r="23.531"/>
	<circle fill="#EA0707" stroke="#000000" stroke-width="0.5" cx="446.266" cy="540.96" r="21.994"/>
	<circle fill="#EA0707" stroke="#000000" stroke-width="0.5" cx="484.896" cy="513.194" r="17.698"/>
	<circle fill="#07EA07" stroke="#000000" stroke-width="0.5" cx="24.177" cy="288.725" r="23.295"/>
	<circle fill="#0094FF" stroke="#000000" stroke-width="0.5" cx="216.189" cy="35.744" r="26.655"/>
	<circle fill="#0094FF" stroke="#000000" stroke-width="0.5" cx="183.892" cy="48.607" r="2.334"/>
	<circle fill="#EA0707" stroke="#000000" stroke-width="0.5" cx="509.292" cy="489.57" r="10.619"/>
	<circle fill="#07EA07" stroke="#000000" stroke-width="0.5" cx="25.97" cy="335.052" r="15.384"/>
	<circle fill="#EA0707" stroke="#000000" stroke-width="0.5" cx="530.678" cy="463.108" r="17.751"/>
	<circle fill="#EA0707" stroke="#000000" stroke-width="0.5" cx="551.543" cy="428.833" r="15.716"/>
	<circle fill="#EA0707" stroke="#000000" stroke-width="0.5" cx="567.22" cy="392.1" r="17.596"/>
	<circle fill="#EA0707" stroke="#000000" stroke-width="0.5" cx="577.436" cy="353.825" r="15.444"/>
	<circle fill="#EA0707" stroke="#000000" stroke-width="0.5" cx="581.646" cy="322.337" r="11.044"/>
	<circle fill="#EA0707" stroke="#000000" stroke-width="0.5" cx="582.319" cy="292.519" r="13.823"/>
	<circle fill="#EA0707" stroke="#000000" stroke-width="0.5" cx="580.736" cy="270.217" r="4.814"/>
	<circle fill="#0094FF" stroke="#000000" stroke-width="0.5" cx="172.293" cy="54.42" r="8.478"/>
	<circle fill="#07EA07" stroke="#000000" stroke-width="0.5" cx="31.104" cy="364.14" r="9.242"/>
	<circle fill="#0094FF" stroke="#000000" stroke-width="0.5" cx="154.655" cy="64.618" r="8.504"/>
	<circle fill="#07EA07" stroke="#000000" stroke-width="0.5" cx="39.372" cy="392.787" r="15.617"/>
	<circle fill="#07EA07" stroke="#000000" stroke-width="0.5" cx="55.669" cy="430.489" r="18.642"/>
	<circle fill="#0094FF" stroke="#000000" stroke-width="0.5" cx="136.015" cy="77.404" r="10.338"/>
	<circle fill="#EA0707" stroke="#000000" stroke-width="0.5" cx="577.907" cy="250.947" r="11.419"/>
	<circle fill="#EA0707" stroke="#000000" stroke-width="0.5" cx="571.307" cy="223.019" r="12.505"/>
	<circle fill="#07EA07" stroke="#000000" stroke-width="0.5" cx="81.163" cy="470.55" r="20.978"/>
	<circle fill="#0094FF" stroke="#000000" stroke-width="0.5" cx="122.717" cy="87.986" r="3.826"/>
	<circle fill="#07EA07" stroke="#000000" stroke-width="0.5" cx="116.03" cy="508.42" r="21.979"/>
	<circle fill="#EA0707" stroke="#000000" stroke-width="0.5" cx="557.125" cy="184.916" r="21.406"/>
	<circle fill="#07EA07" stroke="#000000" stroke-width="0.5" cx="147.447" cy="532.951" r="11.266"/>
	<circle fill="#07EA07" stroke="#000000" stroke-width="0.5" cx="173.593" cy="548.518" r="14.105"/>
	<circle fill="#EA0707" stroke="#000000" stroke-width="0.5" cx="536.324" cy="147.383" r="14.39"/>
	<circle fill="#EA0707" stroke="#000000" stroke-width="0.5" cx="519.067" cy="123.966" r="9.861"/>
	<circle fill="#0094FF" stroke="#000000" stroke-width="0.5" cx="101.954" cy="107.467" r="19.91"/>
	<circle fill="#EA0707" stroke="#000000" stroke-width="0.5" cx="494.049" cy="97.258" r="20.657"/>
	<circle fill="#EA0707" stroke="#000000" stroke-width="0.5" cx="464.814" cy="73.381" r="10.822"/>
	<circle fill="#0094FF" stroke="#000000" stroke-width="0.5" cx="79.819" cy="133.478" r="8.57"/>
	<circle fill="#0094FF" stroke="#000000" stroke-width="0.5" cx="66.404" cy="153.027" r="11.194"/>
	<circle fill="#07EA07" stroke="#000000" stroke-width="0.5" cx="203.871" cy="562.148" r="13.582"/>
	<circle fill="#07EA07" stroke="#000000" stroke-width="0.5" cx="237.495" cy="572.568" r="15.772"/>
	<circle fill="#0094FF" stroke="#000000" stroke-width="0.5" cx="48.505" cy="186.509" r="20.468"/>
	<circle fill="#EA0707" stroke="#000000" stroke-width="0.5" cx="447.221" cy="61.865" r="6.705"/>
	<circle fill="#07EA07" stroke="#000000" stroke-width="0.5" cx="277.072" cy="579.179" r="17.695"/>
	<circle fill="#EA0707" stroke="#000000" stroke-width="0.5" cx="416.756" cy="45.99" r="21.941"/>
	<circle fill="#EA0707" stroke="#000000" stroke-width="0.5" cx="384.048" cy="33.816" r="7.161"/>
	<circle fill="#0094FF" stroke="#000000" stroke-width="0.5" cx="31.889" cy="234.813" r="22.161"/>
	<circle fill="#EA0707" stroke="#000000" stroke-width="0.5" cx="348.379" cy="25.533" r="23.376"/>
	<circle fill="#07EA07" stroke="#000000" stroke-width="0.5" cx="328.205" cy="579.278" r="24.976"/>
	<circle fill="#07EA07" stroke="#000000" stroke-width="0.5" cx="378.066" cy="570.173" r="17.32"/>
	<circle fill="#07EA07" stroke="#000000" stroke-width="0.5" cx="410.557" cy="558.933" r="11.348"/>
	<circle fill="#EA0707" stroke="#000000" stroke-width="0.5" cx="311.852" cy="21.986" r="7.23"/>
</g>
<g id="node-labels">
	<g>
		<text transform="matrix(1 0 0 1 229.166 15.2197)" font-family="'AvenirNextLTPro-Regular'" font-size="12.2613">Joe Perches -</text>
		<text transform="matrix(1 0 0 1 374.8945 543.2295)" font-family="'AvenirNextLTPro-Regular'" font-size="11.7282">Thomas Gleixner - Red Hat</text>
		<text transform="matrix(1 0 0 1 432.7422 515.7734)" font-family="'AvenirNextLTPro-Regular'" font-size="10.662">Tejun Heo - Facebook</text>
		<text transform="matrix(1 0 0 1 -38.4067 291.563)" font-family="'AvenirNextLTPro-Regular'" font-size="11.7282">Arnd Bergmann - Linaro</text>
		<text transform="matrix(1 0 0 1 101.6934 36.8394)" font-family="'AvenirNextLTPro-Regular'" font-size="12.7944">Greg Kroah-Hartman - Linux Foundation</text>
		<text transform="matrix(1 0 0 1 165.7344 49.2246)" font-family="'AvenirNextLTPro-Regular'" font-size="6.9303">lizf@kernel ... -</text>
		<text transform="matrix(1 0 0 1 470.2646 491.3242)" font-family="'AvenirNextLTPro-Regular'" font-size="9.0627">Dan Williams - Intel</text>
		<text transform="matrix(1 0 0 1 -44.6729 337.502)" font-family="'AvenirNextLTPro-Regular'" font-size="10.1289">Krzysztof Kozlowski - Samsung</text>
		<text transform="matrix(1 0 0 1 429.3438 465.6875)" font-family="'AvenirNextLTPro-Regular'" font-size="10.662">Andy Lutomirski - AMA Capital Managment</text>
		<text transform="matrix(1 0 0 1 498.3486 430.7939)" font-family="'AvenirNextLTPro-Regular'" font-size="10.1289">Borislav Petkov - SUSE</text>
		<text transform="matrix(1 0 0 1 506.4756 394.1621)" font-family="'AvenirNextLTPro-Regular'" font-size="10.662">Steven Rostedt - Red Hat</text>
		<text transform="matrix(1 0 0 1 534.9365 356.2754)" font-family="'AvenirNextLTPro-Regular'" font-size="10.1289">Christoph Hellwig -</text>
		<text transform="matrix(1 0 0 1 539.8389 324.0908)" font-family="'AvenirNextLTPro-Regular'" font-size="9.0627">Paolo Bonzini - GNU</text>
		<text transform="matrix(1 0 0 1 565.3447 294.377)" font-family="'AvenirNextLTPro-Regular'" font-size="9.5958">Al Viro -</text>
		<text transform="matrix(1 0 0 1 547.4824 272.0229)" font-family="'AvenirNextLTPro-Regular'" font-size="7.4634">Wang Nan - Huawei</text>
		<text transform="matrix(1 0 0 1 152.3872 56.4834)" font-family="'AvenirNextLTPro-Regular'" font-size="8.5296">Jiri Slaby -</text>
		<text transform="matrix(1 0 0 1 11.4268 366.2031)" font-family="'AvenirNextLTPro-Regular'" font-size="8.5296">Jiang Liu -</text>
		<text transform="matrix(1 0 0 1 109.6123 66.6821)" font-family="'AvenirNextLTPro-Regular'" font-size="8.5296">Ben Hutchings - Debian</text>
		<text transform="matrix(1 0 0 1 -2.5776 395.2188)" font-family="'AvenirNextLTPro-Regular'" font-size="10.1289">Lee Jones - Linaro</text>
		<text transform="matrix(1 0 0 1 -1.459 433.0684)" font-family="'AvenirNextLTPro-Regular'" font-size="10.662">Rafael J. Wysocki - Intel</text>
		<text transform="matrix(1 0 0 1 98.0762 79.1582)" font-family="'AvenirNextLTPro-Regular'" font-size="9.0627">Michael S. Tsirkin -</text>
		<text transform="matrix(1 0 0 1 528.2949 253.1401)" font-family="'AvenirNextLTPro-Regular'" font-size="9.0627">Oleg Nesterov - Red Hat</text>
		<text transform="matrix(1 0 0 1 523.2061 224.7725)" font-family="'AvenirNextLTPro-Regular'" font-size="9.0627">Kirill A. Shutemov - Intel</text>
		<text transform="matrix(1 0 0 1 42.5874 472.7178)" font-family="'AvenirNextLTPro-Regular'" font-size="11.1951">Pavel Machek -</text>
		<text transform="matrix(1 0 0 1 77.9165 89.4297)" font-family="'AvenirNextLTPro-Regular'" font-size="7.4634">Kamal Mostafa - Canonical</text>
		<text transform="matrix(1 0 0 1 44.0029 511.2578)" font-family="'AvenirNextLTPro-Regular'" font-size="11.7282">Geert Uytterhoeven - Glider</text>
		<text transform="matrix(1 0 0 1 469.5449 187.1851)" font-family="'AvenirNextLTPro-Regular'" font-size="11.7282">Linus Torvalds - Linux Foundation</text>
		<text transform="matrix(1 0 0 1 78.6895 534.7051)" font-family="'AvenirNextLTPro-Regular'" font-size="9.0627">Alexandre Belloni - Free Elcetrons</text>
		<text transform="matrix(1 0 0 1 115.9902 550.8398)" font-family="'AvenirNextLTPro-Regular'" font-size="9.5958">Stephen Boyd - Qualcomm</text>
		<text transform="matrix(1 0 0 1 493.9229 149.7041)" font-family="'AvenirNextLTPro-Regular'" font-size="9.5958">Paul E. McKenney -</text>
		<text transform="matrix(1 0 0 1 450.3223 125.6162)" font-family="'AvenirNextLTPro-Regular'" font-size="8.5296">Arnaldo Carvalho de Melo - Red Hat</text>
		<text transform="matrix(1 0 0 1 69.2979 109.6338)" font-family="'AvenirNextLTPro-Regular'" font-size="11.1951">David Miller -</text>
		<text transform="matrix(1 0 0 1 433.0693 99.9663)" font-family="'AvenirNextLTPro-Regular'" font-size="11.1951">Andrew Morton - Google</text>
		<text transform="matrix(1 0 0 1 426.0303 75.5737)" font-family="'AvenirNextLTPro-Regular'" font-size="9.0627">Luis R. Rodriguez -</text>
		<text transform="matrix(1 0 0 1 28.6152 135.5415)" font-family="'AvenirNextLTPro-Regular'" font-size="8.5296">Luis Henriques - Canonical</text>
		<text transform="matrix(1 0 0 1 4.4409 155.2202)" font-family="'AvenirNextLTPro-Regular'" font-size="9.0627">Sudip Mukherjee - Vector India</text>
		<text transform="matrix(1 0 0 1 157.2925 561.0059)" font-family="'AvenirNextLTPro-Regular'" font-size="9.5958">Viresh Kumar - Linaro</text>
		<text transform="matrix(1 0 0 1 180.1709 571.0176)" font-family="'AvenirNextLTPro-Regular'" font-size="10.1289">Dmitry Torokhov - Google</text>
		<text transform="matrix(1 0 0 1 -37.3574 189.2173)" font-family="'AvenirNextLTPro-Regular'" font-size="11.1951">Guenter Roeck - Juniper Networks</text>
		<text transform="matrix(1 0 0 1 411.0029 63.7993)" font-family="'AvenirNextLTPro-Regular'" font-size="7.9965">Namhyung Kim - LG</text>
		<text transform="matrix(1 0 0 1 227.7891 581.7578)" font-family="'AvenirNextLTPro-Regular'" font-size="10.662">Linus Walleij - Linaro</text>
		<text transform="matrix(1 0 0 1 359.0645 48.8271)" font-family="'AvenirNextLTPro-Regular'" font-size="11.7282">Ingo Molnar - Red Hat</text>
		<text transform="matrix(1 0 0 1 351.3887 35.7354)" font-family="'AvenirNextLTPro-Regular'" font-size="7.9965">Jiri Olsa - Red Hat</text>
		<text transform="matrix(1 0 0 1 -17.6582 237.6509)" font-family="'AvenirNextLTPro-Regular'" font-size="11.7282">Stephen Rothwell -</text>
		<text transform="matrix(1 0 0 1 300.7451 19.3706)" font-family="'AvenirNextLTPro-Regular'" font-size="11.7282">Peter Zijlstra - Red Hat</text>
		<text transform="matrix(1 0 0 1 278.1191 594.5742)" font-family="'AvenirNextLTPro-Regular'" font-size="12.2613">Paul Bolle - Tiscali</text>
		<text transform="matrix(1 0 0 1 330.0723 572.2363)" font-family="'AvenirNextLTPro-Regular'" font-size="10.662">Mark Brown - Linaro</text>
		<text transform="matrix(1 0 0 1 339.2881 561.125)" font-family="'AvenirNextLTPro-Regular'" font-size="9.0627">Javier Martinez Canillas - Samsung</text>
		<text transform="matrix(1 0 0 1 277.7744 25.9209)" font-family="'AvenirNextLTPro-Regular'" font-size="7.9965">Yinghai Lu - Oracle</text>
	</g>
</g>
</svg>
